/* XPM */
static const char * document_open_xpm[] = {
"48 48 663 2",
"  	c None",
". 	c #FFFFFF",
"+ 	c #FEFEFE",
"@ 	c #FBFBFB",
"# 	c #F6F6F6",
"$ 	c #F1F0F0",
"% 	c #DDDDDD",
"& 	c #F6F4F4",
"* 	c #F5F4F4",
"= 	c #F6F5F5",
"- 	c #F4F3F3",
"; 	c #F3F2F2",
"> 	c #F1EFEF",
", 	c #EEEDED",
"' 	c #EAE9E9",
") 	c #E7E6E6",
"! 	c #E2E1E1",
"~ 	c #DBDADA",
"{ 	c #D7D6D6",
"] 	c #B4B3B3",
"^ 	c #F7F6F6",
"/ 	c #F7F5F5",
"( 	c #EFEEEE",
"_ 	c #ECEBEB",
": 	c #E8E7E7",
"< 	c #E3E2E2",
"[ 	c #DDDCDC",
"} 	c #CFCECE",
"| 	c #CACACA",
"1 	c #D0D0D0",
"2 	c #F5F3F3",
"3 	c #F3F3F3",
"4 	c #F2F1F1",
"5 	c #EFEFEF",
"6 	c #ECECEC",
"7 	c #E8E8E8",
"8 	c #E5E4E4",
"9 	c #DFDEDE",
"0 	c #D5D4D4",
"a 	c #BFBFBF",
"b 	c #E4E4E4",
"c 	c #C9C7C7",
"d 	c #F5F5F5",
"e 	c #E6E6E6",
"f 	c #E1E0E0",
"g 	c #D9D8D8",
"h 	c #C9C9C9",
"i 	c #C9C8C8",
"j 	c #CDCBCB",
"k 	c #F7F7F7",
"l 	c #F8F6F6",
"m 	c #CCCBCB",
"n 	c #B7B6B6",
"o 	c #FDFCFC",
"p 	c #E3E0E0",
"q 	c #D1D0D0",
"r 	c #517FB7",
"s 	c #517EB5",
"t 	c #517DB3",
"u 	c #294B75",
"v 	c #F8F7F7",
"w 	c #DDDBDB",
"x 	c #CECDCD",
"y 	c #ACABAB",
"z 	c #D4D3D3",
"A 	c #426C9E",
"B 	c #7AA8E2",
"C 	c #89B1E7",
"D 	c #86B2E7",
"E 	c #87B0E5",
"F 	c #507099",
"G 	c #F4F4F4",
"H 	c #F0EFEF",
"I 	c #D0CFCF",
"J 	c #ADADAD",
"K 	c #F1F1F1",
"L 	c #EBEAEA",
"M 	c #D5D3D3",
"N 	c #3A608C",
"O 	c #79A8E3",
"P 	c #6095D8",
"Q 	c #6197D8",
"R 	c #6196D6",
"S 	c #365C8E",
"T 	c #F0F0F0",
"U 	c #E6E5E5",
"V 	c #D1D1D1",
"W 	c #ADABAB",
"X 	c #FCFCFC",
"Y 	c #E2DFDF",
"Z 	c #C3C7CE",
"` 	c #436C9F",
" .	c #5382BD",
"..	c #5482BC",
"+.	c #5382BB",
"@.	c #5582BB",
"#.	c #5481B9",
"$.	c #31537A",
"%.	c #6A9CDC",
"&.	c #6094D3",
"*.	c #5F94D4",
"=.	c #5F92D1",
"-.	c #345A8B",
";.	c #F6F7F7",
">.	c #F8F8F8",
",.	c #F5F6F6",
"'.	c #F4F5F5",
").	c #EEEEEE",
"!.	c #EAEAEA",
"~.	c #DFE0E0",
"{.	c #AAAAAA",
"].	c #FDFDFD",
"^.	c #F9F9F9",
"/.	c #ECEAEA",
"(.	c #E2DEDD",
"_.	c #CBCCCF",
":.	c #6E90BC",
"<.	c #87B0E1",
"[.	c #87AFE0",
"}.	c #85AFDF",
"|.	c #83AEDF",
"1.	c #83ACDE",
"2.	c #79A6DD",
"3.	c #5079AB",
"4.	c #2F5076",
"5.	c #6095D6",
"6.	c #5E90CE",
"7.	c #5C8FCF",
"8.	c #5C90CC",
"9.	c #305787",
"0.	c #EBEBEB",
"a.	c #E7E7E7",
"b.	c #E0E0E0",
"c.	c #A9A9A9",
"d.	c #FAFAFA",
"e.	c #E0DEDD",
"f.	c #C2C3CA",
"g.	c #4B76AE",
"h.	c #5B8FCF",
"i.	c #5B8FCE",
"j.	c #5E8ECE",
"k.	c #598DCE",
"l.	c #5F94D3",
"m.	c #456B9A",
"n.	c #2E5278",
"o.	c #5E92D1",
"p.	c #5A8CCA",
"q.	c #5B8CCA",
"r.	c #588AC8",
"s.	c #305484",
"t.	c #F2F2F2",
"u.	c #EDEDED",
"v.	c #E1E1E1",
"w.	c #A8A8A8",
"x.	c #C1C3C7",
"y.	c #4875AC",
"z.	c #5B8DCB",
"A.	c #5A8BCA",
"B.	c #588CCA",
"C.	c #5B90D0",
"D.	c #345883",
"E.	c #2D5079",
"F.	c #578BCC",
"G.	c #5587C6",
"H.	c #5487C6",
"I.	c #5787C3",
"J.	c #2B5180",
"K.	c #E2E2E2",
"L.	c #CFCFCF",
"M.	c #A6A6A6",
"N.	c #EBE9E9",
"O.	c #BABDC2",
"P.	c #4670AA",
"Q.	c #5387C6",
"R.	c #5486C6",
"S.	c #598BCC",
"T.	c #2E4F77",
"U.	c #2B5077",
"V.	c #588AC7",
"W.	c #5283C0",
"X.	c #5082C1",
"Y.	c #4F81BE",
"Z.	c #294F7C",
"`.	c #E3E3E3",
" +	c #CECECE",
".+	c #A7A7A7",
"++	c #F9F8F8",
"@+	c #E7E5E4",
"#+	c #B1B5BC",
"$+	c #436FA6",
"%+	c #5183C0",
"&+	c #5488C7",
"*+	c #2D4D75",
"=+	c #294E74",
"-+	c #5384C2",
";+	c #507FBC",
">+	c #5080BC",
",+	c #4E7EBA",
"'+	c #244B78",
")+	c #D2D2D2",
"!+	c #B4B4B4",
"~+	c #959595",
"{+	c #8B8B8B",
"]+	c #878787",
"^+	c #8A8A8A",
"/+	c #8D8D8D",
"(+	c #A3A3A3",
"_+	c #AFAFAF",
":+	c #F1F0EF",
"<+	c #BABEC7",
"[+	c #3E6CA7",
"}+	c #5284C2",
"|+	c #2A4B72",
"1+	c #274A72",
"2+	c #507FBD",
"3+	c #497CB7",
"4+	c #4A7BB7",
"5+	c #4979B6",
"6+	c #244874",
"7+	c #F8F9F9",
"8+	c #DADADA",
"9+	c #C5C4C4",
"0+	c #B0B0B0",
"a+	c #B1B1B1",
"b+	c #B3B2B2",
"c+	c #B3B3B3",
"d+	c #B0AFAF",
"e+	c #A0A09F",
"f+	c #CFCECC",
"g+	c #C6D1DD",
"h+	c #4273B1",
"i+	c #26486F",
"j+	c #254970",
"k+	c #4B7AB8",
"l+	c #4A78B3",
"m+	c #4978B3",
"n+	c #4776B1",
"o+	c #214571",
"p+	c #F9F7F7",
"q+	c #FAF9F9",
"r+	c #D0D1D1",
"s+	c #D2D1D1",
"t+	c #CDCDCD",
"u+	c #C7C7C7",
"v+	c #BEBDBD",
"w+	c #D6D4D2",
"x+	c #91AACA",
"y+	c #25456B",
"z+	c #23486D",
"A+	c #4677B3",
"B+	c #4273AE",
"C+	c #4674AE",
"D+	c #4372AC",
"E+	c #1F436D",
"F+	c #FAF8F8",
"G+	c #F7F8F8",
"H+	c #E4E3E3",
"I+	c #DFDFDE",
"J+	c #DCDBDB",
"K+	c #D8D7D7",
"L+	c #D3D2D0",
"M+	c #FBFCFF",
"N+	c #143358",
"O+	c #21466A",
"P+	c #4473AE",
"Q+	c #4270A9",
"R+	c #4170A9",
"S+	c #4170A7",
"T+	c #1B3F69",
"U+	c #F7F7F8",
"V+	c #F6F6F7",
"W+	c #F5F6F7",
"X+	c #F4F5F6",
"Y+	c #F3F4F4",
"Z+	c #F2F3F3",
"`+	c #F2F1F2",
" @	c #EFF0EF",
".@	c #EEEEED",
"+@	c #EBECEC",
"@@	c #ECEBEC",
"#@	c #E9E9EA",
"$@	c #E7E7E9",
"%@	c #E5E5E5",
"&@	c #E3E3E4",
"*@	c #DFDEDF",
"=@	c #092446",
"-@	c #1F4367",
";@	c #3F70A8",
">@	c #3F6DA3",
",@	c #3D6CA3",
"'@	c #3F6CA1",
")@	c #193C65",
"!@	c #F8F8F9",
"~@	c #F7F6F7",
"{@	c #F2F2F4",
"]@	c #ECEFF0",
"^@	c #E7EBED",
"/@	c #E5E9EB",
"(@	c #E4E7EB",
"_@	c #E4E7EA",
":@	c #E5E7EA",
"<@	c #E5E6EA",
"[@	c #E4E6E9",
"}@	c #E5E6E9",
"|@	c #E4E5E8",
"1@	c #E3E5E8",
"2@	c #E2E5E7",
"3@	c #E1E4E6",
"4@	c #E1E4E5",
"5@	c #E0E3E4",
"6@	c #DFE1E3",
"7@	c #DFE0E2",
"8@	c #DEE0E2",
"9@	c #DDDFE2",
"0@	c #DCDFE1",
"a@	c #DCDDE0",
"b@	c #DBDDDF",
"c@	c #DBDDE0",
"d@	c #DADCDF",
"e@	c #D9DBDD",
"f@	c #051F3D",
"g@	c #1C3F62",
"h@	c #3A689C",
"i@	c #346297",
"j@	c #396797",
"k@	c #386497",
"l@	c #163960",
"m@	c #F1F2F4",
"n@	c #F3F2F4",
"o@	c #F3F3F4",
"p@	c #F3F4F5",
"q@	c #F2F3F4",
"r@	c #F2F1F3",
"s@	c #ECEDEE",
"t@	c #DCE1E5",
"u@	c #CBD1D7",
"v@	c #BAC2CB",
"w@	c #B6BEC7",
"x@	c #B5BDC6",
"y@	c #B6BDC6",
"z@	c #B5BDC5",
"A@	c #B6BEC6",
"B@	c #B5BCC5",
"C@	c #B5BCC4",
"D@	c #B4BBC4",
"E@	c #B4BCC4",
"F@	c #B3BBC4",
"G@	c #B3BBC3",
"H@	c #B3BAC2",
"I@	c #B3BAC3",
"J@	c #B2BAC2",
"K@	c #B2BAC3",
"L@	c #B2B9C0",
"M@	c #B3BAC1",
"N@	c #B5BBC3",
"O@	c #E3E6EA",
"P@	c #00122F",
"Q@	c #19395A",
"R@	c #2C5585",
"S@	c #2B5382",
"T@	c #2B5381",
"U@	c #0F2E52",
"V@	c #F4F5F7",
"W@	c #D9DDE2",
"X@	c #DCDFE3",
"Y@	c #DCDFE5",
"Z@	c #D8DCE1",
"`@	c #CBD1D8",
" #	c #AFB9C4",
".#	c #A6BFD7",
"+#	c #B3D3EC",
"@#	c #AACDEA",
"##	c #AACEEA",
"$#	c #ACCDEA",
"%#	c #ABCEEA",
"&#	c #ACCEEA",
"*#	c #A8CCEA",
"=#	c #AFD1EE",
"-#	c #9CB6CC",
";#	c #082343",
">#	c #123762",
",#	c #11365F",
"'#	c #10355F",
")#	c #001B3F",
"!#	c #B4BDC9",
"~#	c #A1ACB9",
"{#	c #A2ACB9",
"]#	c #A3ADB9",
"^#	c #A2ADB9",
"/#	c #9EA8B6",
"(#	c #919FB1",
"_#	c #90AAC7",
":#	c #B0D0EA",
"<#	c #8FB3DD",
"[#	c #85ABDA",
"}#	c #87ABDA",
"|#	c #86ABDA",
"1#	c #88ABDA",
"2#	c #88ACDA",
"3#	c #88AEDB",
"4#	c #92B6E1",
"5#	c #7097BF",
"6#	c #BADDF9",
"7#	c #B5D8F3",
"8#	c #ABCEEB",
"9#	c #AACEEB",
"0#	c #AACFEB",
"a#	c #ACCFEB",
"b#	c #AACFEC",
"c#	c #ABD0EB",
"d#	c #A4C7E7",
"e#	c #90B3DD",
"f#	c #86ACDA",
"g#	c #87ADDB",
"h#	c #88ADDB",
"i#	c #89ADDB",
"j#	c #87ACDB",
"k#	c #8BAEDB",
"l#	c #88ACDB",
"m#	c #8EB2E0",
"n#	c #527CAE",
"o#	c #89ADDE",
"p#	c #89AAD9",
"q#	c #87A9DA",
"r#	c #86A9DA",
"s#	c #83A9DA",
"t#	c #84A9DA",
"u#	c #85A9DA",
"v#	c #87AADA",
"w#	c #86AADA",
"x#	c #85ABDB",
"y#	c #87ABDB",
"z#	c #8AACDB",
"A#	c #88ABDB",
"B#	c #86ABDB",
"C#	c #89ACDB",
"D#	c #89ABDB",
"E#	c #8BAFE0",
"F#	c #547EAD",
"G#	c #8BAFDE",
"H#	c #84ACDA",
"I#	c #87ACDA",
"J#	c #85ACDA",
"K#	c #89ACDA",
"L#	c #88ADDA",
"M#	c #89AFDF",
"N#	c #537DAD",
"O#	c #88AEDD",
"P#	c #85AADA",
"Q#	c #84AADA",
"R#	c #89ABDA",
"S#	c #88AEDF",
"T#	c #527DAD",
"U#	c #83AADA",
"V#	c #537CAD",
"W#	c #88ADDD",
"X#	c #84A9D9",
"Y#	c #83A9D9",
"Z#	c #85A9D9",
"`#	c #82A9D9",
" $	c #86AAD9",
".$	c #86ADDE",
"+$	c #527CAD",
"@$	c #86ACDC",
"#$	c #81A9D9",
"$$	c #80A9D9",
"%$	c #85ADDE",
"&$	c #87ACDC",
"*$	c #83A8D9",
"=$	c #82A7D9",
"-$	c #81A8D9",
";$	c #80A8D9",
">$	c #7FA8D9",
",$	c #82A8D9",
"'$	c #80A7D9",
")$	c #84A8D9",
"!$	c #84ACDE",
"~$	c #517CAC",
"{$	c #87AADC",
"]$	c #83A6D8",
"^$	c #80A6D8",
"/$	c #81A6D8",
"($	c #7FA6D8",
"_$	c #82A6D8",
":$	c #83A7D8",
"<$	c #81A7D8",
"[$	c #83AADD",
"}$	c #517BAC",
"|$	c #85AADB",
"1$	c #7EA6D8",
"2$	c #82AADD",
"3$	c #89AEDF",
"4$	c #85AADC",
"5$	c #86AADC",
"6$	c #89ABDC",
"7$	c #84AADC",
"8$	c #83AADC",
"9$	c #88AADC",
"0$	c #87ABDC",
"a$	c #8BAADC",
"b$	c #85ABDC",
"c$	c #89AEE1",
"d$	c #2A609A",
"e$	c #316BAA",
"f$	c #3269A8",
"g$	c #3169A8",
"h$	c #336AA8",
"i$	c #3369A8",
"j$	c #3069A8",
"k$	c #346DAD",
"l$	c #3F6DA1",
"m$	c #4E7FBA",
"n$	c #4B7DB8",
"o$	c #4C7DB8",
"p$	c #4D7EB8",
"q$	c #4E7FB8",
"r$	c #4D7DB8",
"s$	c #4A7DB8",
"t$	c #4E7EB8",
"u$	c #4F7EB8",
"v$	c #4E7DB8",
"w$	c #507FB8",
"x$	c #4D80BC",
"y$	c #3A6AA0",
"z$	c #457AB7",
"A$	c #4479B4",
"B$	c #4579B4",
"C$	c #4679B4",
"D$	c #4678B4",
"E$	c #467AB4",
"F$	c #4379B4",
"G$	c #4578B4",
"H$	c #487CB9",
"I$	c #688CB8",
"J$	c #93B4E1",
"K$	c #8EB2DD",
"L$	c #93B2DD",
"M$	c #90B2DD",
"N$	c #90B1DD",
"O$	c #91B3DD",
"P$	c #8FB1DD",
"Q$	c #8FB2DD",
"R$	c #91B2DD",
"S$	c #92B4DE",
"T$	c #8DB1DD",
"U$	c #8DB2DD",
"V$	c #93B5E2",
"W$	c #4D7AAC",
"X$	c #81A5D9",
"Y$	c #78A2D5",
"Z$	c #75A1D5",
"`$	c #7AA1D5",
" %	c #79A1D5",
".%	c #7FA2D5",
"+%	c #7EA2D5",
"@%	c #7DA2D5",
"#%	c #78A1D5",
"$%	c #7EA1D5",
"%%	c #7AA2D5",
"&%	c #7FA1D5",
"*%	c #76A1D5",
"=%	c #7DA5DA",
"-%	c #4E7AAC",
";%	c #7EA4D9",
">%	c #79A2D6",
",%	c #7CA1D6",
"'%	c #77A1D6",
")%	c #79A1D6",
"!%	c #78A1D6",
"~%	c #7AA1D6",
"{%	c #7BA3D6",
"]%	c #7AA2D6",
"^%	c #7DA5DB",
"/%	c #4E79AB",
"(%	c #7DA3D8",
"_%	c #779FD4",
":%	c #78A0D5",
"<%	c #779FD5",
"[%	c #7BA0D5",
"}%	c #7EA0D5",
"|%	c #799FD5",
"1%	c #77A0D5",
"2%	c #769FD5",
"3%	c #79A0D5",
"4%	c #7AA0D5",
"5%	c #78A0D4",
"6%	c #7DA6D9",
"7%	c #4B78AA",
"8%	c #749DD1",
"9%	c #749CCF",
"0%	c #799ED0",
"a%	c #749DD0",
"b%	c #749ED0",
"c%	c #759DD0",
"d%	c #729DD0",
"e%	c #739DD0",
"f%	c #7A9FD0",
"g%	c #759ED0",
"h%	c #75A0D0",
"i%	c #729ED0",
"j%	c #719DD0",
"k%	c #739DCF",
"l%	c #739BCF",
"m%	c #4B74A6",
"n%	c #6992C6",
"o%	c #6E95C6",
"p%	c #6893C6",
"q%	c #6A93C6",
"r%	c #6D94C6",
"s%	c #6C94C6",
"t%	c #6E94C6",
"u%	c #6B93C6",
"v%	c #7197C6",
"w%	c #7694C6",
"x%	c #6B95C6",
"y%	c #6F94C6",
"z%	c #6994C6",
"A%	c #7094C6",
"B%	c #6C92C6",
"C%	c #7196C5",
"D%	c #6B92CA",
"E%	c #3A6290",
"F%	c #6387BF",
"G%	c #668ABE",
"H%	c #6888BF",
"I%	c #6087BF",
"J%	c #6988BF",
"K%	c #6A8BBF",
"L%	c #6687BF",
"M%	c #6688BF",
"N%	c #698ABF",
"O%	c #5E86BF",
"P%	c #6588BF",
"Q%	c #6487BF",
"R%	c #6386BF",
"S%	c #6187BF",
"T%	c #6388BF",
"U%	c #678ABF",
"V%	c #6287BF",
"W%	c #678BBF",
"X%	c #6088BF",
"Y%	c #6A8ABF",
"Z%	c #6B8CBF",
"`%	c #6789BF",
" &	c #5D84BD",
".&	c #436691",
"+&	c #00162E",
"@&	c #00182E",
"#&	c #00172E",
"$&	c #00162D",
"%&	c #00172D",
"&&	c #00172C",
"*&	c #00162C",
"=&	c #00162B",
"-&	c #00162A",
";&	c #001529",
">&	c #001629",
",&	c #001429",
"'&	c #00152A",
")&	c #011A2F",
"!&	c #01192F",
"~&	c #001A2F",
"{&	c #001730",
"                                                                                                ",
"                                                                                                ",
"                . . . . . . . . . . . . . . . + @ # $ %                                         ",
"                . & * * * * * = = = & * - ; > , ' ) ! ~ { ]                                     ",
"                . * = * = ^ / ^ ^ ^ ^ * * ; $ ( _ : < [ } | 1                                   ",
"                . * = ^ = ^ ^ ^ ^ ^ ^ & 2 3 4 5 6 7 8 9 0 a b c                                 ",
"                . = / ^ ^ ^ ^ ^ / # # # d - ; $ , ' e f g h i , j                               ",
"                . = ^ ^ ^ / ^ # k ^ l ^ = * ; $ , ' e ! ~ m n o p q                             ",
"      r s s t u . = ^ ^ ^ # k v v v v ^ ^ * - 4 ( _ : < w x y . ' p z                           ",
"    A B C D E F . = / # k v k v v v v ^ / = G 4 H 6 7 b % I J . K L p M                         ",
"    N O P Q R S . = # ^ v v v v l v v k k = * 3 T , ' U 9 V W X ^ 4 L Y Z `  ...+.+.@.+.#.      ",
"    $.%.&.*.=.-.. # k ;.;.;.# k k >.>.k k ,.'.3 K ).!.e ~.1 {.].^.# 4 /.(._.:.<.[.}.|.1.2.3.    ",
"    4.5.6.7.8.9.. # k k k k k >.>.>.>.k k # d G K 5 0.a.b.1 c.+ d.>.# 4 L e.f.g.h.i.j.k.l.m.    ",
"    n.o.p.q.r.s.. # k # k >.>.>.>.>.>.k # k # d t.T u.!.v.1 w.. @ ^.>.# 4 /.e.x.y.z.A.B.C.D.    ",
"    E.F.G.H.I.J.. # # k k >.>.>.>.k >.>.>.>.k d G K 5 0.K.L.M.. X @ d.^.# K N.e.O.P.Q.R.S.T.    ",
"    U.V.W.X.Y.Z.. # k k >.>.>.k >.^.^.^.k >.# # G t.T 6 `. +.+. . . . . . . . ++@+#+$+%+&+*+    ",
"    =+-+;+>+,+'+. k k >.>.>.k >.^.^.^.>.^.k k # d 3 t.).e )+!+~+{+]+]+^+/+~+(+_+h :+<+[+}+|+    ",
"    1+2+3+4+5+6+. k v v >.v ++>.++++^.^.7+v >.k # d - K !.8+9+!+_+_+0+a+b+c+c+d+J e+f+g+h+i+    ",
"    j+k+l+m+n+o+. ^ l v v ++++p+++^.7+^.q+v ++v ^ = * ; ( U ~ )+I  +r+V )+s+V q t+u+v+w+x+y+    ",
"    z+A+B+C+D+E+. ^ v k ++++p+++>.^.q+q+F+q+>.++G+k # d 3 5 !.) 8 H+H+`.K.K.v.b.I+J+K+L+M+N+    ",
"    O+P+Q+R+S+T+. ^ G+>.>.p+++>.++++v U+;.k V+,.W+X+'.Y+Z+`+T  @.@+@@@L #@$@e %@b `.&@*@. =@    ",
"    -@;@>@,@'@)@. k >.++++++!@>.~@{@]@^@/@(@(@_@:@<@[@}@|@1@2@3@4@5@6@7@8@9@0@a@b@c@d@e@. f@    ",
"    g@h@i@j@k@l@. m@n@n@o@p@q@r@s@t@u@v@w@x@x@y@z@x@A@z@B@x@B@C@D@E@F@G@H@I@I@J@K@L@M@N@O@P@    ",
"    Q@R@S@S@T@U@V@W@X@X@X@Y@X@Z@`@ #.#+#@###########@#####@#########$#%#%#&#%#%#%#%###@#*#=#-#  ",
"    ;#>#,#,#'#)#!#~#{#{#]#]#^#/#(#_#:#<#[#}#|#|#|#}#|#|#|#|#1#|#|#1#2#|#}#|#}#|#|#|#}#|#|#3#4#  ",
"  5#6#7#7#7#7#7#8#9#0#0#a#0#0#b#c#d#e#f#g#g#h#g#i#i#h#g#j#k#l#j#h#h#h#i#g#g#g#h#g#i#i#h#g#j#m#  ",
"  n#o#p#q#r#s#r#t#t#u#r#v#u#w#u#r#u#x#y#z#z#A#B#A#B#y#y#A#C#j#C#y#D#y#B#y#z#z#A#B#A#B#B#y#A#E#  ",
"  F#G#[#f#H#I#J#J#K#I#L#|#2#J#I#J#K#f#I#[#f#H#I#J#J#K#I#L#|#2#J#I#J#K#f#I#[#f#H#I#J#J#2#I#L#M#  ",
"  N#O#}#P#P#Q#R#2#P#|#Q#P#Q#Q#P#P#v#w#Q#}#P#P#}#R#2#P#|#Q#P#Q#Q#P#P#v#w#Q#}#P#P#}#R#K#Q#|#Q#S#  ",
"  T#O#P#P#P#Q#v#v#U#w#v#P#Q#P#Q#Q#Q#Q#Q#w#P#P#Q#v#v#U#w#v#P#Q#P#Q#Q#Q#Q#Q#w#P#P#Q#v#v#U#w#v#S#  ",
"  V#W#X#Y#Z#`#Y#Y# $`#X#`#Z#Y#Y#Y#Y#Z#Y#X#Y#Z#`#Y#Y# $`#X#`#Z#Y#Y#Y#Y#Z#Y#X#Y#Z#`#Y#Y#Z#`#X#.$  ",
"  +$@$`##$#$X#`#$$X#`#X#`#Y#`#Y#Y#Y#Z#`#Y##$#$X#`#$$X#`#X#`#Y#`#Y#Y#Y#Z#`#Y##$#$X#`#$$Y#`#X#%$  ",
"  +$&$*$=$-$;$>$>$*$,$'$,$*$*$-$)$'$)$,$)$=$-$'$>$>$*$,$'$,$*$*$-$)$'$)$,$)$=$-$'$>$>$,$,$'$!$  ",
"  ~${$]$^$/$($_$($/$($:$($/$_$^$^$]$^$_$^$^$/$<$_$($/$($:$($/$_$^$^$]$^$_$^$^$/$<$_$($/$($:$[$  ",
"  }$|$/$^$1$/$^$_$($<$1$($^$/$^$1$($^$<$/$^$1$/$^$_$($<$1$($^$/$^$1$($^$<$/$^$1$/$^$_$^$<$1$2$  ",
"  N#3$4$5$6$4$5$7$4$5$4$4$8$9$4$0$a$b$4$7$5$6$4$5$7$4$5$4$4$8$9$4$0$a$b$4$7$5$6$4$5$7$4$5$4$c$  ",
"  d$e$f$f$g$f$f$f$g$g$g$h$f$g$g$f$i$i$g$i$f$g$f$f$f$g$g$g$h$f$g$g$f$i$i$g$i$f$g$f$f$f$j$g$g$k$  ",
"  l$m$n$o$p$q$r$s$o$t$t$n$u$t$p$v$s$t$r$n$o$r$w$r$s$o$t$t$n$u$t$p$v$s$t$r$n$o$r$w$r$s$o$t$t$x$  ",
"  y$z$A$B$A$A$C$B$D$E$A$C$F$F$B$G$B$B$A$B$B$A$A$C$B$D$E$A$C$F$F$B$G$B$B$A$B$B$A$A$C$B$G$E$A$H$  ",
"  I$J$K$L$M$N$O$P$Q$M$M$R$S$R$Q$L$T$R$M$U$L$M$N$O$P$Q$M$M$R$S$R$Q$L$T$R$M$U$L$M$N$O$P$Q$M$M$V$  ",
"  W$X$Y$Z$`$ %.%+%@%#%$%#%%%%%&% %+%%%$%*%Z$`$#%.%+%@%#%$%#%%%%%&% %+%%%$%*%Z$`$#%.%.%`$#%$%=%  ",
"  -%;%>%,%'%)%,%!%)%,%!%)%!%~%)%~%{%'%~%]%,%'%)%,%!%)%,%!%)%!%~%)%~%{%'%~%]%,%'%)%,%!%~%,%!%^%  ",
"  /%(%_%:%:%<%[%}%<%:%|%`$1%2%|%[%3%:%4%<%:%1%<%[%}%<%:%|%`$1%2%|%[%3%:%4%<%:%1%<%[%}%<%5%5%6%  ",
"  7%8%9%0%a%a%b%c%d%e%a%f%g%h%d%c%i%e%d%c%0%a%a%b%c%d%e%a%f%g%h%d%c%i%e%d%c%0%a%a%b%c%j%k%l%`$  ",
"  m%n%o%p%q%r%s%p%t%u%v%p%r%u%w%s%x%y%z%s%p%q%t%s%p%t%u%v%p%r%u%w%s%x%y%z%s%p%q%t%s%p%A%B%C%D%  ",
"  E%F%G%H%I%J%K%L%M%N%O%P%Q%R%S%T%U%F%V%W%H%X%Y%Z%L%M%N%O%P%Q%R%S%T%`%F%V%U%H%I%Y%K%L%Q%N% &.&  ",
"    +&@&#&#&#&$&%&%&%&&&*&=&-&;&>&=&-&;&;&,&;&;&,&>&'&;&-&'&=&-&;&>&=&&&*&%&&&%&$&%&)&!&~&{&    ",
"                                                                                                "};
