/* XPM */
static const char * exit_48x48_xpm[] = {
"48 48 256 2",
"  	c None",
". 	c #780100",
"+ 	c #7E0001",
"@ 	c #7A0400",
"# 	c #890001",
"$ 	c #830200",
"% 	c #830206",
"& 	c #7B0600",
"* 	c #8D0100",
"= 	c #950002",
"- 	c #980000",
"; 	c #8E0300",
"> 	c #9F0001",
", 	c #7D0A0B",
"' 	c #A30000",
") 	c #900600",
"! 	c #AC0000",
"~ 	c #9B0600",
"{ 	c #810F06",
"] 	c #AF0200",
"^ 	c #B60000",
"/ 	c #B90000",
"( 	c #81100E",
"_ 	c #C20005",
": 	c #A70900",
"< 	c #9E0C01",
"[ 	c #8C110E",
"} 	c #951013",
"| 	c #971105",
"1 	c #A01000",
"2 	c #AB1001",
"3 	c #A31300",
"4 	c #A2140D",
"5 	c #9A1716",
"6 	c #9B1810",
"7 	c #A51700",
"8 	c #AF1600",
"9 	c #B11900",
"0 	c #A71B17",
"a 	c #A01E14",
"b 	c #B41D00",
"c 	c #9A221E",
"d 	c #A91E1F",
"e 	c #942521",
"f 	c #A62311",
"g 	c #8F2925",
"h 	c #B82102",
"i 	c #9E2621",
"j 	c #982924",
"k 	c #AF2416",
"l 	c #A9271A",
"m 	c #A82720",
"n 	c #BC2600",
"o 	c #A22A29",
"p 	c #C12326",
"q 	c #AF2C10",
"r 	c #B62A14",
"s 	c #C72702",
"t 	c #D42028",
"u 	c #C02A00",
"v 	c #A03024",
"w 	c #A52E31",
"x 	c #AF2D1E",
"y 	c #AA3123",
"z 	c #CB2B00",
"A 	c #D72424",
"B 	c #A53427",
"C 	c #CF2827",
"D 	c #B82F2F",
"E 	c #A8361D",
"F 	c #B7330F",
"G 	c #AD342B",
"H 	c #CF2F00",
"I 	c #9A3A35",
"J 	c #B43434",
"K 	c #A03D23",
"L 	c #A53B2A",
"M 	c #BC3338",
"N 	c #A7393B",
"O 	c #9B402D",
"P 	c #AD3B2D",
"Q 	c #BD3914",
"R 	c #D43402",
"S 	c #9E4223",
"T 	c #A44026",
"U 	c #A3402B",
"V 	c #C03B0D",
"W 	c #A04040",
"X 	c #D73700",
"Y 	c #A14425",
"Z 	c #B83D27",
"` 	c #BC3B3A",
" .	c #A64333",
"..	c #C53F11",
"+.	c #AE4331",
"@.	c #D43738",
"#.	c #A94530",
"$.	c #DB3B00",
"%.	c #C1403D",
"&.	c #CA430C",
"*.	c #DF3E00",
"=.	c #AE4643",
"-.	c #D14311",
";.	c #B04A2E",
">.	c #E14003",
",.	c #C04534",
"'.	c #B1494B",
").	c #AC4D34",
"!.	c #B24C30",
"~.	c #E44200",
"{.	c #AD4C4B",
"].	c #CF4811",
"^.	c #AA4F4A",
"/.	c #D8480C",
"(.	c #D34A08",
"_.	c #C84749",
":.	c #E84600",
"<.	c #A95340",
"[.	c #B25232",
"}.	c #E04341",
"|.	c #B84E4A",
"1.	c #B2504E",
"2.	c #BA4F45",
"3.	c #C34E38",
"4.	c #EB4900",
"5.	c #CD4B4D",
"6.	c #B45356",
"7.	c #BE5243",
"8.	c #B75630",
"9.	c #B65351",
"0.	c #EE4B03",
"a.	c #C8523B",
"b.	c #B35936",
"c.	c #F14D00",
"d.	c #BA564F",
"e.	c #B55954",
"f.	c #DA4F4E",
"g.	c #706C6A",
"h.	c #BB5855",
"i.	c #F35000",
"j.	c #C45748",
"k.	c #A85F4C",
"l.	c #B55A5A",
"m.	c #BE594C",
"n.	c #C65843",
"o.	c #F55100",
"p.	c #B25F3E",
"q.	c #BE5A52",
"r.	c #C15B48",
"s.	c #B85D5D",
"t.	c #7A6E6F",
"u.	c #F85400",
"v.	c #BF6156",
"w.	c #BA6561",
"x.	c #C56554",
"y.	c #B96B4D",
"z.	c #BE696B",
"A.	c #C06A66",
"B.	c #E96462",
"C.	c #BE706E",
"D.	c #C07548",
"E.	c #C97061",
"F.	c #D67155",
"G.	c #C37472",
"H.	c #908484",
"I.	c #C57A53",
"J.	c #C67775",
"K.	c #AA7F7D",
"L.	c #C97771",
"M.	c #B07E7E",
"N.	c #B57D7F",
"O.	c #D17768",
"P.	c #C27A7C",
"Q.	c #B67E80",
"R.	c #DC775A",
"S.	c #C57C78",
"T.	c #BA7F7C",
"U.	c #958989",
"V.	c #DC7677",
"W.	c #E37573",
"X.	c #CC7C7A",
"Y.	c #C67E80",
"Z.	c #D27D6B",
"`.	c #BF837A",
" +	c #E37C59",
".+	c #C98183",
"++	c #C48381",
"@+	c #DE7E7C",
"#+	c #C68584",
"$+	c #C38884",
"%+	c #CF8581",
"&+	c #D58482",
"*+	c #EC8259",
"=+	c #9A9594",
"-+	c #E88081",
";+	c #CB8987",
">+	c #EE8455",
",+	c #C58B8D",
"'+	c #A79496",
")+	c #C68C8E",
"!+	c #CD8B8A",
"~+	c #D08E8D",
"{+	c #A19C9B",
"]+	c #DA9280",
"^+	c #D7928B",
"/+	c #D09491",
"(+	c #CF9496",
"_+	c #DA9387",
":+	c #A8A3A1",
"<+	c #E79592",
"[+	c #D49A9B",
"}+	c #ABA6A4",
"|+	c #E4999A",
"1+	c #D39F9E",
"2+	c #B0ABA9",
"3+	c #F39999",
"4+	c #D9A5A5",
"5+	c #B5B0AF",
"6+	c #BAB4B3",
"7+	c #E3AA9E",
"8+	c #DAACA9",
"9+	c #F1A6A7",
"0+	c #EFAAA8",
"a+	c #BFBAB9",
"b+	c #C3BEBD",
"c+	c #C7C2C0",
"d+	c #CCC7C5",
"e+	c #D0CAC9",
"f+	c #E6C6BF",
"g+	c #D7CACB",
"h+	c #CDCFCC",
"i+	c #CFD1CE",
"j+	c #D2D4D1",
"k+	c #EECDC6",
"l+	c #D5D7D4",
"m+	c #EFD0CF",
"n+	c #E9D2CF",
"o+	c #D8DAD6",
"p+	c #DADCD9",
"q+	c #DBDDDA",
"r+	c #DDDFDC",
"s+	c #DEE0DD",
"t+	c #E1E3E0",
"u+	c #E7E2E0",
"v+	c #E4E6E3",
"w+	c #ECE6E5",
"x+	c #E6E8E5",
"y+	c #E7E9E6",
"z+	c #EAECE9",
"A+	c #F1EBEA",
"B+	c #EBEEEA",
"C+	c #EDF0EC",
"D+	c #F4EEED",
"E+	c #EFF1EE",
"F+	c #F1F3F0",
"G+	c #F8F2F1",
"                                                                                                ",
"                                                                                                ",
"                                                                                                ",
"          B.}.A A A A A A A A A A A A A A A A A A A A A A A A t t t C C C C C C C f.W.          ",
"        3+3+-+W.W.W.W.W.W.W.W.W.W.W.W.W.W.W.W.W.W.V.V.V.V.V.V.V.V.V.V.V.V.V.V.V.V.<+9+3+        ",
"      B.0+m+8+4+4+4+4+4+4+4+4+4+4+4+4+4+4+4+4+4+4+4+4+4+4+4+4+4+4+4+4+4+4+4+4+4+4+8+m+|+f.      ",
"      @.@+1+1+1+1+1+1+1+1+1+1+1+1+1+1+1+1+1+1+1+1+1+1+1+1+1+1+1+1+1+1+1+1+1+1+1+1+1+4+&+p       ",
"      _ 5.[+[+[+[+[+[+[+[+[+[+[+[+[+[+[+[+[+[+[+[+[+[+[+[+[+[+[+[+[+[+[+[+[+[+[+[+[+[+X.!       ",
"      / _.(+(+(+(+(+(+(+(+(+(+(+(+(+(+(+(+(+(+(+(+(+(+(+(+(+(+(+(+(+(+(+(+(+(+(+(+(+(+X.:       ",
"      / _.~+~+~+~+~+~+,+t.g.K.~+~+~+~+~+~+~+~+~+~+~+~+~+~+~+~+~+~+K.g.t.)+~+~+~+~+~+/+X.:       ",
"      / _.;+;+;+;+;+$+H.o+y+}+K.;+;+;+;+;+;+;+;+;+;+;+;+;+;+;+;+K.}+y+o+H.$+;+;+;+;+!+X.:       ",
"      ^ %.#+#+#+#+++U.r+E+E+B+2+K.#+#+#+#+#+#+#+#+#+#+#+#+#+#+K.2+B+E+E+q+U.++#+#+#+;+X.>       ",
"      ^ %.Y.Y.Y.Y.'+s+E+E+E+E+B+5+M.Y.Y.Y.Y.Y.Y.Y.Y.Y.Y.Y.Y.M.5+B+E+E+E+E+s+'+Y.Y.Y..+X.>       ",
"      ^ %.P.P.P.P.u+E+E+E+E+C+B+z+6+M.P.P.P.P.P.P.P.P.P.P.M.6+y+B+C+E+E+E+E+u+P.P.P.P.X.>       ",
"      ] ` G.G.G.G.1+G+E+E+C+B+B+z+y+6+M.G.G.G.G.G.G.G.G.M.6+x+y+z+B+C+E+E+G+1+G.G.G.J.X.>       ",
"      ] M C.C.C.C.C.1+G+E+B+B+z+z+y+x+a+Q.C.C.C.C.C.C.N.a+v+x+y+y+z+B+C+G+1+C.C.C.C.G.X.~       ",
"      ! M z.z.z.z.z.z.1+G+B+z+z+y+y+x+v+b+T.A.A.A.A.T.b+t+v+v+x+y+y+z+G+1+z.z.z.z.z.z.Y.~       ",
"      ! D w.w.w.w.w.w.w.[+G+z+y+y+x+x+v+t+c+T.A.A.T.c+s+t+t+t+v+x+y+D+[+w.w.w.w.w.w.z.Y.=       ",
"      ! D s.s.s.s.s.s.s.s.(+D+y+x+x+v+t+t+s+d+`.T.d+s+s+s+s+t+t+v+D+(+s.s.s.s.s.s.s.w..+=       ",
"      ! J l.l.l.l.l.l.l.l.l./+E+x+v+t+t+s+s+r+e+e+q+r+r+r+s+s+s+A+/+l.l.l.l.l.l.l.l.l..+=       ",
"      ! J 6.6.6.6.6.6.9.9.h.h./+D+t+t+s+s+s+r+q+q+q+q+q+q+q+r+A+/+h.h.e.9.6.6.6.6.l.#+Y.=       ",
"      : J 1.1.1.1.1.1.9.9.d.d.q.^+A+t+s+s+r+q+q+o+o+o+o+o+o+w+^+m.d.d.d.9.1.l.J.!+P.N 5 *       ",
"      : J {.{.{.{.'.1.|.d.2.m.m.r._+A+s+r+q+o+o+o+o+o+o+o+w+_+j.m.m.v.L.%+S.s.o ) * * 5 *       ",
"      : 0 } c w N =.=.2.2.7.7.j.n.n.]+w+q+o+o+o+o+l+l+l+u+7+Z.O.E.x.7.x < ~ = * * * * 5 *       ",
"      > 0 * * * ) | 4 l x Z Z ,.3.a.k.b+q+o+o+o+l+l+j+j+d+<.h b 9 9 2 7 < ~ ~ ) * * * c #       ",
"      > d * * * ) ~ ~ 3 7 2 9 b h K =+o+o+o+o+l+j+j+j+j+j+:+K h b 9 9 : 3 < ~ = ) * * c #       ",
"      > m * * ) ~ ~ 3 : 2 9 b h K =+o+q+o+o+o+l+j+j+j+i+i+i+}+T h b 9 2 : 3 ~ ~ ) * * i $       ",
"      > m * * ) ~ < 3 2 9 b h K {+q+s+q+o+o+l+l+j+j+i+h+h+h+j+2+T h b 9 2 7 < ~ = ) * v $       ",
"      ~ y * ) = ~ 3 7 2 9 b T :+s+s+s+q+o+o+o+u+u+j+h+h+h+h+j+j+5+T h 9 9 7 3 ~ ~ ) * v $       ",
"      ~ y * ) ~ ~ 3 2 9 b U }+t+t+t+s+r+q+o+w+*+*+u+h+h+h+h+j+l+o+6+#.b 9 2 7 < ~ ) ) B $       ",
"      ~ G ) ) ~ < 7 2 9 U 2+x+x+v+t+s+s+q+w+>+:.:.>+u+h+h+i+j+o+q+s+a+#.9 2 : < ~ = ) L +       ",
"      = P ) = ~ < 7 2 U 6+y+y+y+x+t+t+s+A+>+4.4.4.4.>+u+j+j+o+o+s+t+x+c+#.9 : 3 ~ = ) L +       ",
"      = P ) = ~ 3 :  .6+z+B+z+y+x+v+t+A+*+4.i.i.i.i.4.>+w+o+q+s+t+v+y+z+d+ .: 3 ~ ~ ) U @       ",
"      = +.) ~ ~ 3  .a+B+E+B+B+z+y+x+D+*+:.0.i.u.u.i.i.4.>+w+s+t+v+y+z+C+C+e+ .3 ~ ~ ) #..       ",
"      ) +.) ~ ~ 3 g+B+E+E+E+B+z+z+D+*+~.4.i.i.u.u.u.i.4.:.*+D+x+y+z+C+E+E+C+g+3 ~ ~ ) #..       ",
"      * ;.) ~ ~ 3 f+F+E+E+E+E+C+G+ +$.~.:.0.i.u.u.i.i.4.~.>. +D+B+C+E+E+E+E+f+3 ~ ~ ) )..       ",
"      * !.) = ~ 3 k m+F+E+E+E+G+ +X $.>.:.4.i.i.i.i.4.:.~.$.$. +G+E+E+E+F+n+k 3 ~ ~ ) [..       ",
"      * [.) = ~ < 7 r k+F+E+G+R.H R $.>.~.:.4.4.4.4.:.~.>.$.R H R.G+E+F+n+r 7 3 ~ = ) [..       ",
"      # [.) ) ~ < 7 2 r k+G+F.s H H X $.>.~.:.:.:.:.~.>.$.$.R H H F.G+k+r 2 : < ~ = ) b..       ",
"      # 8.* ) ~ ~ 3 2 9 b h u s H H R $.$.>.>.>.>.>.>.$.$.R H H s u h b 9 2 7 < ~ ) ) b..       ",
"      $ b.) ) ~ ~ 3 7 2 9 b n u s H H R X $.$.$.$.$.$.X R H H s u n h 9 9 7 3 ~ ~ ) ) b..       ",
"      e y.6 * ) ~ < 7 2 9 b h n u s H H H R R X X R R H H H s u u h b 9 2 7 < ~ = ) 6 p.,       ",
"      j ^.I.E a f f q q F F Q V ..&.-.&.-.(.(././.(.(.].].&.&...V V F F q q f f a E D.g %       ",
"        I W U K K S S T S S T T Y Y Y Y Y Y Y Y Y Y Y Y Y Y Y S S S S S S S S S S O g (         ",
"          [ { & & & & @ @ @ @ @ @ @ @ @ @ @ @ @ . . . . . . . . . . . . . . . . . , %           ",
"                                                                                                ",
"                                                                                                ",
"                                                                                                "};
