/* XPM */
static const char * pause_48x48_xpm[] = {
"48 48 191 2",
"  	g None",
". 	g #868686",
"+ 	g #848484",
"@ 	g #838383",
"# 	g #828282",
"$ 	g #818181",
"% 	g #808080",
"& 	g #7E7E7E",
"* 	g #7D7D7D",
"= 	g #7C7C7C",
"- 	g #7A7A7A",
"; 	g #797979",
"> 	g #777777",
", 	g #747474",
"' 	g #707070",
") 	g #6D6D6D",
"! 	g #6B6B6B",
"~ 	g #696969",
"{ 	g #686868",
"] 	g #727272",
"^ 	g #676767",
"/ 	g #616161",
"( 	g #5C5C5C",
"_ 	g #656565",
": 	g #767676",
"< 	g #6A6A6A",
"[ 	g #626262",
"} 	g #5D5D5D",
"| 	g #717171",
"1 	g #8E8E8E",
"2 	g #B1B1B1",
"3 	g #BCBCBC",
"4 	g #BFBFBF",
"5 	g #C1C1C1",
"6 	g #C3C3C3",
"7 	g #B2B2B2",
"8 	g #5B5B5B",
"9 	g #B4B4B4",
"0 	g #BEBEBE",
"a 	g #C6C6C6",
"b 	g #CECECE",
"c 	g #D5D5D5",
"d 	g #D8D8D8",
"e 	g #DBDBDB",
"f 	g #DCDCDC",
"g 	g #DADADA",
"h 	g #D4D4D4",
"i 	g #CFCFCF",
"j 	g #C9C9C9",
"k 	g #C4C4C4",
"l 	g #B7B7B7",
"m 	g #787878",
"n 	g #6F6F6F",
"o 	g #666666",
"p 	g #5A5A5A",
"q 	g #ADADAD",
"r 	g #CACACA",
"s 	g #E0E0E0",
"t 	g #E4E4E4",
"u 	g #E5E5E5",
"v 	g #E6E6E6",
"w 	g #E7E7E7",
"x 	g #E3E3E3",
"y 	g #E1E1E1",
"z 	g #DDDDDD",
"A 	g #D6D6D6",
"B 	g #C7C7C7",
"C 	g #6C6C6C",
"D 	g #595959",
"E 	g #949494",
"F 	g #C8C8C8",
"G 	g #EAEAEA",
"H 	g #ECECEC",
"I 	g #EDEDED",
"J 	g #EEEEEE",
"K 	g #EBEBEB",
"L 	g #E9E9E9",
"M 	g #DFDFDF",
"N 	g #959595",
"O 	g #757575",
"P 	g #606060",
"Q 	g #5E5E5E",
"R 	g #A3A3A3",
"S 	g #C0C0C0",
"T 	g #EFEFEF",
"U 	g #F1F1F1",
"V 	g #F2F2F2",
"W 	g #F3F3F3",
"X 	g #F4F4F4",
"Y 	g #F0F0F0",
"Z 	g #E2E2E2",
"` 	g #DEDEDE",
" .	g #A7A7A7",
"..	g #5F5F5F",
"+.	g #AEAEAE",
"@.	g #F5F5F5",
"#.	g #F7F7F7",
"$.	g #F8F8F8",
"%.	g #F6F6F6",
"&.	g #CDCDCD",
"*.	g #737373",
"=.	g #565656",
"-.	g #F9F9F9",
";.	g #FAFAFA",
">.	g #FCFCFC",
",.	g #FBFBFB",
"'.	g #A8A8A8",
").	g #636363",
"!.	g #545454",
"~.	g #939393",
"{.	g #FDFDFD",
"].	g #E8E8E8",
"^.	g #969696",
"/.	g #FEFEFE",
"(.	g #FFFFFF",
"_.	g #6E6E6E",
":.	g #525252",
"<.	g #9B9B9B",
"[.	g #979797",
"}.	g #909090",
"|.	g #919191",
"1.	g #989898",
"2.	g #7F7F7F",
"3.	g #515151",
"4.	g #B3B3B3",
"5.	g #9A9A9A",
"6.	g #555555",
"7.	g #D7D7D7",
"8.	g #575757",
"9.	g #898989",
"0.	g #4C4C4C",
"a.	g #4E4E4E",
"b.	g #505050",
"c.	g #8A8A8A",
"d.	g #4D4D4D",
"e.	g #434343",
"f.	g #464646",
"g.	g #4B4B4B",
"h.	g #B0B0B0",
"i.	g #929292",
"j.	g #585858",
"k.	g #3B3B3B",
"l.	g #3E3E3E",
"m.	g #4A4A4A",
"n.	g #BDBDBD",
"o.	g #646464",
"p.	g #535353",
"q.	g #333333",
"r.	g #373737",
"s.	g #454545",
"t.	g #D0D0D0",
"u.	g #4F4F4F",
"v.	g #383838",
"w.	g #2A2A2A",
"x.	g #303030",
"y.	g #404040",
"z.	g #D3D3D3",
"A.	g #323232",
"B.	g #222222",
"C.	g #3C3C3C",
"D.	g #3A3A3A",
"E.	g #2D2D2D",
"F.	g #444444",
"G.	g #424242",
"H.	g #252525",
"I.	g #0D0D0D",
"J.	g #1C1C1C",
"K.	g #343434",
"L.	g #191919",
"M.	g #000000",
"N.	g #1B1B1B",
"O.	g #080808",
"P.	g #363636",
"Q.	g #1F1F1F",
"R.	g #121212",
"S.	g #3F3F3F",
"T.	g #2C2C2C",
"U.	g #242424",
"V.	g #484848",
"W.	g #878787",
"X.	g #B6B6B6",
"Y.	g #C5C5C5",
"Z.	g #474747",
"`.	g #7B7B7B",
" +	g #AFAFAF",
".+	g #414141",
"++	g #8F8F8F",
"@+	g #A4A4A4",
"#+	g #494949",
"$+	g #B5B5B5",
"%+	g #8B8B8B",
"                                      . . . . . . . . . .                                       ",
"                                + + + @ @ # # # # # # @ @ + + +                                 ",
"                          # # # $ % & * = - ; ; ; ; - = * & % $ # # #                           ",
"                        % % & = - > , ' ) ! ~ { { ~ ! ) ' , > - = & % %                         ",
"                    & & * - > ] ) ^ / ( _ ) : % % : ) _ ( / ^ ) ] > - * & &                     ",
"                  = = - : ' < [ } | 1 2 3 4 5 6 6 6 5 4 7 1 | } [ < ' : - = =                   ",
"                - ; : | ! / 8 $ 9 0 a b c d e f f g d h i j k l $ 8 / ! | : ; -                 ",
"              ; m , n o p > q 4 r d s t u v w w v v t x y z A b B 2 > p o n , m ;               ",
"            > : ] C / D E 3 F d t w G G H I J J J I H K L u x M d b a N D / C ] : >             ",
"          : O ] ! P Q R S c x L K I T U V W W X W W V U Y J G v Z ` h r  .Q P ! ] O :           ",
"        , , ' < ..( +.5 g w K J Y V X @.#.#.$.$.$.#.#.%.@.W U J G u s d &.9 ( ..< ' , ,         ",
"        *.| ! / =.R 5 e L H Y V X %.$.-.;.>.>.>.>.>.>.,.;.$.%.W Y H w y g b '.=./ ! | *.        ",
"      ] ' C ).!.~.S g L I U W %.$.-.,.>.{.{.{.{.{.{.{.>.>.,.;.#.X U I ].Z g &.^.!.).C ' ]       ",
"    ' ' ) _ D *.3 A L I U X #.$.,.>.{./././.(.(.(.(.(././.{.>.,.-.@.V J ].y d r , D _ ) ' '     ",
"    _.C { Q :.q r w I U X #.-.>.>././.(.(.(.(.(.(.(.(.(.(.(./.{.,.;.%.V I w s h l :.Q { C _.    ",
"    ) < ).=.* 4 f H Y X %.-.>.<.[.}.1 |.1.(.(.(.(.(.(.; : _.C | - >.;.@.U H u z b 2.=.).< )     ",
"  ! < o } 3.4.r L J V %.$.,.>.5.1 # = = $ (.(.(.(.(.(.m < 8 !.6.} {.,.-.X T L y 7.0 3.} o < !   ",
"  < { ).8.~ 0 f I U @.#.;.{./.5.9.= : : = (.(.(.(.(.(.m ).!.0.a.=./.{.,.#.V I u z b < 8.).{ <   ",
"  { _ Q b.c.B ].T W %.-.>.{./.^.+ > ' ' > (.(.(.(.(.(.] } d.e.f.b.(./.>.;.@.Y L y h }.b.Q _ {   ",
"^ ^ ).8 g.h.j y T X $.;.{./.(.i.% | ~ < ] (.(.(.(.(.(._.j.f.k.l.m.(.(.{.,.#.V H x g n.g.8 ).^ ^ ",
"_ o.P =.=.3 &.z w V -.,.{./.(.}.* C ).o._.(.(.(.(.(.(.! p.l.q.r.s.(.(./.>.-.X J v z &.=.=.P o._ ",
"o.).Q !.P 4 t.M ].T @.>.{./.(.1 ; ^ ( ..! (.(.(.(.(.(.{ u.v.w.x.y.(.(./.>.,.@.T ].M t./ !.Q ).o.",
").[ } 3.! 5 z.s L Y %.,.{.(.(.+ > ).=.8 { (.(.(.(.(.(.o g.A.B.w.C.(.(.(.{.,.%.Y L s z.) 3.} [ ).",
"[ / 8 b.> 6 h y G U %.,.{.(.(.b.D.x.E.F.p (.(.(.(.(.(.P G.H.I.J.K.(.(.(.{.,.%.U G y h - b.8 / [ ",
"/ P p u.: 6 c y G U #.,.{.(.(.b.q.L.M.L.q.(.(.(.(.(.(.b.q.L.M.L.q.(.(.(.{.,.#.U G y c ; u.p P / ",
"P ..p u.< 6 h y G U %.,.{.(.(.3.K.N.O.N.K.(.(.(.(.(.(.3.K.N.O.N.K.(.(.(.{.,.%.U G y h C u.p ..P ",
"..Q p u.} 5 z.s L Y %.,.{.(.(.:.P.Q.R.Q.P.(.(.(.(.(.(.:.P.Q.R.Q.P.(.(.(.{.,.%.Y L s z.Q u.p Q ..",
"Q Q p b.:.4 t.M ].T @.,.>./.(.6.D.H.N.H.D.(.(.(.(.(.(.6.D.H.N.H.D.(.(./.>.,.@.T ].M t.:.b.p Q Q ",
"} } p :.F.h.&.z v J X -.>./.(.D S.T.U.T.S.(.(.(.(.(.(.D S.T.U.T.S.(.(./.>.-.X J v z 4 F.:.p } } ",
"  } 8 !.V.W.j g x H V #.,.{.(.} F.K.E.K.F.(.(.(.(.(.(.} F.K.E.K.F.(.(.{.,.#.V H x g }.V.!.8 }   ",
"  ( 8 =.g.).k h y L Y @.;.>./.[ m.C.P.C.m.(.(.(.(.(.(.[ m.C.P.C.m.(./.>.;.@.Y L y h o g.=.8 (   ",
"  8 8 8.u.f.X.b z u I V #.,.{.{ 3.F.S.F.3.(.(.(.(.(.(.{ 3.F.S.F.3./.{.,.#.V I u z Y.f.u.8.8 8   ",
"    p j.:.Z.: B 7.y L T X -.,.< D a.g.b.} (.(.(.(.(.(.< D a.g.b.} {.,.-.X T L y 7.`.Z.:.j.p     ",
"    D j.!.0.F. +b z u H U @.;.>.{./.(.(.(.(.(.(.(.(.(.(.(.(.(./.{.>.;.@.U H u z 3 F.0.!.j.D     ",
"    j.j.=.b.f.< a h s w I V %.;.,.{./.(.(.(.(.(.(.(.(.(.(.(./.{.,.;.%.V I w s h n f.b.=.j.j.    ",
"      j.=.p.0..+++r d y ].J V @.-.,.>.{././.(.(.(.(.(././.{.>.,.-.@.V J ].y d 1..+0.p.=.j.      ",
"        8.=.3.m.e.@+&.g Z ].I U X #.;.,.>.>.{.{.{.{.{.>.>.,.;.#.X U I ].Z g  +e.m.3.=.8.        ",
"        j.8.6.b.Z.m.7 b g y w H T V @.#.-.,.,.,.,.,.,.,.-.#.@.V T H w y g n.m.Z.b.6.8.j.        ",
"          8.=.p.a.f.m.@+&.d s u L I Y V X @.%.%.#.%.%.@.X V Y I L u s d +.m.f.a.p.=.8.          ",
"            =.6.p.a.Z.G.}.r h z y u L H J T Y U U U Y T J H L u y z h [.G.Z.a.p.6.=.            ",
"              =.6.p.u.#+y.~ $+b 7.z y x v ].L G G G L ].v x y z 7.3 ) y.#+u.p.6.=.              ",
"                6.6.p.u.g.F.G.> 0 b h g z M s y y y s M z g h Y.- G.F.g.u.p.6.6.                ",
"                  =.6.!.3.d.#+e.G./ %+3 &.t.z.h c h z.t.4 1 ).G.e.#+d.3.!.6.=.                  ",
"                    =.6.!.p.3.d.m.f.G.S.d.D ^ O O ^ D d.S.G.f.m.d.3.p.!.6.=.                    ",
"                        =.6.!.p.3.u.d.g.#+Z.f.s.s.f.Z.#+g.d.u.3.p.!.6.=.                        ",
"                          !.6.!.!.p.:.3.b.u.u.a.a.u.u.b.3.:.p.!.!.6.!.                          ",
"                                6.!.!.!.!.p.p.p.p.p.p.!.!.!.!.6.                                ",
"                                      !.!.6.6.!.!.6.6.!.!.                                      "};
