/* XPM */
static const char * skip_forward_xpm[] = {
"48 48 228 2",
"  	g None",
". 	g #868686",
"+ 	g #848484",
"@ 	g #838383",
"# 	g #828282",
"$ 	g #818181",
"% 	g #808080",
"& 	g #7E7E7E",
"* 	g #7D7D7D",
"= 	g #7C7C7C",
"- 	g #7A7A7A",
"; 	g #797979",
"> 	g #777777",
", 	g #747474",
"' 	g #707070",
") 	g #6D6D6D",
"! 	g #6B6B6B",
"~ 	g #696969",
"{ 	g #686868",
"] 	g #727272",
"^ 	g #676767",
"/ 	g #616161",
"( 	g #5C5C5C",
"_ 	g #656565",
": 	g #767676",
"< 	g #6A6A6A",
"[ 	g #626262",
"} 	g #5D5D5D",
"| 	g #717171",
"1 	g #8E8E8E",
"2 	g #B1B1B1",
"3 	g #BCBCBC",
"4 	g #BFBFBF",
"5 	g #C1C1C1",
"6 	g #C3C3C3",
"7 	g #B2B2B2",
"8 	g #5B5B5B",
"9 	g #B4B4B4",
"0 	g #BEBEBE",
"a 	g #C6C6C6",
"b 	g #CECECE",
"c 	g #D5D5D5",
"d 	g #D8D8D8",
"e 	g #DBDBDB",
"f 	g #DCDCDC",
"g 	g #DADADA",
"h 	g #D4D4D4",
"i 	g #CFCFCF",
"j 	g #C9C9C9",
"k 	g #C4C4C4",
"l 	g #B7B7B7",
"m 	g #787878",
"n 	g #6F6F6F",
"o 	g #666666",
"p 	g #5A5A5A",
"q 	g #ADADAD",
"r 	g #CACACA",
"s 	g #E0E0E0",
"t 	g #E4E4E4",
"u 	g #E5E5E5",
"v 	g #E6E6E6",
"w 	g #E7E7E7",
"x 	g #E3E3E3",
"y 	g #E1E1E1",
"z 	g #DDDDDD",
"A 	g #D6D6D6",
"B 	g #C7C7C7",
"C 	g #6C6C6C",
"D 	g #595959",
"E 	g #949494",
"F 	g #C8C8C8",
"G 	g #EAEAEA",
"H 	g #ECECEC",
"I 	g #EDEDED",
"J 	g #EEEEEE",
"K 	g #EBEBEB",
"L 	g #E9E9E9",
"M 	g #DFDFDF",
"N 	g #959595",
"O 	g #757575",
"P 	g #606060",
"Q 	g #5E5E5E",
"R 	g #A3A3A3",
"S 	g #C0C0C0",
"T 	g #EFEFEF",
"U 	g #F1F1F1",
"V 	g #F2F2F2",
"W 	g #F3F3F3",
"X 	g #F4F4F4",
"Y 	g #F0F0F0",
"Z 	g #E2E2E2",
"` 	g #DEDEDE",
" .	g #A7A7A7",
"..	g #5F5F5F",
"+.	g #AEAEAE",
"@.	g #F5F5F5",
"#.	g #F7F7F7",
"$.	g #F8F8F8",
"%.	g #F6F6F6",
"&.	g #CDCDCD",
"*.	g #737373",
"=.	g #565656",
"-.	g #F9F9F9",
";.	g #FAFAFA",
">.	g #FCFCFC",
",.	g #FBFBFB",
"'.	g #A8A8A8",
").	g #636363",
"!.	g #545454",
"~.	g #939393",
"{.	g #BABABA",
"].	g #FDFDFD",
"^.	g #E8E8E8",
"/.	g #969696",
"(.	g #A1A1A1",
"_.	g #A6A6A6",
":.	g #FEFEFE",
"<.	g #FFFFFF",
"[.	g #6E6E6E",
"}.	g #525252",
"|.	g #9F9F9F",
"1.	g #9A9A9A",
"2.	g #A0A0A0",
"3.	g #9B9B9B",
"4.	g #909090",
"5.	g #D7D7D7",
"6.	g #7F7F7F",
"7.	g #515151",
"8.	g #B3B3B3",
"9.	g #9C9C9C",
"0.	g #8A8A8A",
"a.	g #858585",
"b.	g #A9A9A9",
"c.	g #4B4B4B",
"d.	g #4C4C4C",
"e.	g #585858",
"f.	g #575757",
"g.	g #989898",
"h.	g #919191",
"i.	g #D1D1D1",
"j.	g #4A4A4A",
"k.	g #424242",
"l.	g #444444",
"m.	g #505050",
"n.	g #8C8C8C",
"o.	g #535353",
"p.	g #393939",
"q.	g #3C3C3C",
"r.	g #B0B0B0",
"s.	g #898989",
"t.	g #4E4E4E",
"u.	g #3A3A3A",
"v.	g #303030",
"w.	g #343434",
"x.	g #BDBDBD",
"y.	g #646464",
"z.	g #9E9E9E",
"A.	g #494949",
"B.	g #333333",
"C.	g #272727",
"D.	g #2C2C2C",
"E.	g #3F3F3F",
"F.	g #D0D0D0",
"G.	g #1F1F1F",
"H.	g #252525",
"I.	g #D3D3D3",
"J.	g #434343",
"K.	g #A5A5A5",
"L.	g #404040",
"M.	g #141414",
"N.	g #363636",
"O.	g #373737",
"P.	g #2D2D2D",
"Q.	g #232323",
"R.	g #1A1A1A",
"S.	g #181818",
"T.	g #222222",
"U.	g #313131",
"V.	g #3E3E3E",
"W.	g #484848",
"X.	g #353535",
"Y.	g #1B1B1B",
"Z.	g #080808",
"`.	g #4F4F4F",
" +	g #212121",
".+	g #171717",
"++	g #0D0D0D",
"@+	g #040404",
"#+	g #070707",
"$+	g #111111",
"%+	g #2F2F2F",
"&+	g #CCCCCC",
"*+	g #191919",
"=+	g #000000",
"-+	g #0E0E0E",
";+	g #060606",
">+	g #090909",
",+	g #121212",
"'+	g #383838",
")+	g #2E2E2E",
"!+	g #242424",
"~+	g #0F0F0F",
"{+	g #101010",
"]+	g #161616",
"^+	g #282828",
"/+	g #3B3B3B",
"(+	g #454545",
"_+	g #323232",
":+	g #292929",
"<+	g #1D1D1D",
"[+	g #555555",
"}+	g #2A2A2A",
"|+	g #878787",
"1+	g #2B2B2B",
"2+	g #3D3D3D",
"3+	g #464646",
"4+	g #B6B6B6",
"5+	g #C5C5C5",
"6+	g #474747",
"7+	g #7B7B7B",
"8+	g #AFAFAF",
"9+	g #414141",
"0+	g #8F8F8F",
"a+	g #A4A4A4",
"b+	g #979797",
"c+	g #B5B5B5",
"d+	g #4D4D4D",
"e+	g #8B8B8B",
"                                      . . . . . . . . . .                                       ",
"                                + + + @ @ # # # # # # @ @ + + +                                 ",
"                          # # # $ % & * = - ; ; ; ; - = * & % $ # # #                           ",
"                        % % & = - > , ' ) ! ~ { { ~ ! ) ' , > - = & % %                         ",
"                    & & * - > ] ) ^ / ( _ ) : % % : ) _ ( / ^ ) ] > - * & &                     ",
"                  = = - : ' < [ } | 1 2 3 4 5 6 6 6 5 4 7 1 | } [ < ' : - = =                   ",
"                - ; : | ! / 8 $ 9 0 a b c d e f f g d h i j k l $ 8 / ! | : ; -                 ",
"              ; m , n o p > q 4 r d s t u v w w v v t x y z A b B 2 > p o n , m ;               ",
"            > : ] C / D E 3 F d t w G G H I J J J I H K L u x M d b a N D / C ] : >             ",
"          : O ] ! P Q R S c x L K I T U V W W X W W V U Y J G v Z ` h r  .Q P ! ] O :           ",
"        , , ' < ..( +.5 g w K J Y V X @.#.#.$.$.$.#.#.%.@.W U J G u s d &.9 ( ..< ' , ,         ",
"        *.| ! / =.R 5 e L H Y V X %.$.-.;.>.>.>.>.>.>.,.;.$.%.W Y H w y g b '.=./ ! | *.        ",
"      ] ' C ).!.~.S g L {.G W %.$.-.,.>.].].].].].].].>.>.,.;.#.X U I ^.Z g &./.!.).C ' ]       ",
"    ' ' ) _ D *.3 A L I (._.d $.,.>.].:.:.:.<.<.<.<.<.:.:.].>.,.-.@.V J ^.y d r , D _ ) ' '     ",
"    [.C { Q }.q r w I U (.|.1.l W :.:.<.<.<.<.<.<.<.<.<.<.<.:.].,.;.%.V I w s h l }.Q { C [.    ",
"    ) < ).=.* 4 f H Y X 2.3.N 4.E 5.<.<.<.<.<.<.<.<.<.<.<.<.| [._ ).{ O U H u z b 6.=.).< )     ",
"  ! < o } 7.8.r L J V %.9./.4.0.a.$ b.X <.<.<.<.<.<.<.<.<.<.n / }.c.d.e.X T L y 5.0 7.} o < !   ",
"  < { ).f.~ 0 f I U @.#.g.h.0.+ 6.- m % i.<.<.<.<.<.<.<.<.<.n p j.k.l.7.#.V I u z b < f.).{ <   ",
"  { _ Q m.0.B ^.T W %.-.~.n.a.6.; , ] n [.|.W <.<.<.<.<.<.<.< o.k.p.q.j.;.@.Y L y h 4.m.Q _ {   ",
"^ ^ ).8 c.r.j y T X $.;.4.s.% - *.[.! ~ { ~ > i <.<.<.<.<.<._ t.u.v.w.l.,.#.V H x g x.c.8 ).^ ^ ",
"_ y.P =.=.3 &.z w V -.,.n.+ = O [.{ _ ).[ _ o ~ z.W <.<.<.<./ A.B.C.D.E.>.-.X J v z &.=.=.P y._ ",
"y.).Q !.P 4 F.M ^.T @.>.& $ m ' { [ Q } } ..[ o < - i.<.<.<.Q l.D.G.H.u.>.,.@.T ^.M F./ !.Q ).y.",
").[ } 7.! 5 I.s L Y %.,.u.J.=./ [ ( D e.D 8 ..).^ C | K.W <.} L.H.M.G.N.].,.%.Y L s I.) 7.} [ ).",
"[ / 8 m.> 6 h y G U %.,.O.P.Q.R.S.T.U.V.W.m.e.P _ { C | = b o.X.Y.Z.Y.w.].,.%.U G y h - m.8 / [ ",
"/ P p `.: 6 c y G U #.,.N.D. +.+++@+#+$+Y.H.%+p.l.t.e.[ ] &+m.B.*+=+*+B.].,.#.U G y c ; `.p P / ",
"P ..p `.< 6 h y G U %.,.N.D.T.S.-+;+>+,+Y.H.v.u.l.t.e./.V <.7.w.Y.Z.Y.w.].,.%.U G y h C `.p ..P ",
"..Q p `.} 5 I.s L Y %.,.'+)+!+Y.M.~+{+]+G.^+U./+(+} F <.<.<.}.N.G.,+G.N.].,.%.Y L s I.Q `.p Q ..",
"Q Q p m.}.4 F.M ^.T @.,./+_+:+ +Y.S.S.<+!+D.X.V.a.U <.<.<.<.[+u.H.Y.H.u.>.,.@.T ^.M F.}.m.p Q Q ",
"} } p }.l.r.&.z v J X -.E.N.%+^+Q. + +H.}+U.A.S <.<.<.<.<.<.D E.D.!+D.E.>.-.X J v z 4 l.}.p } } ",
"  } 8 !.W.|+j g x H V #.l.q.X.v.1+:+}+P.U.- T <.<.<.<.<.<.<.} l.w.P.w.l.,.#.V H x g 4.W.!.8 }   ",
"  ( 8 =.c.).k h y L Y @.j.J.2+'+w._+B.3+x.<.<.<.<.<.<.<.<.<.[ j.q.N.q.j.;.@.Y L y h o c.=.8 (   ",
"  8 8 f.`.3+4+b z u I V m.j.l.L.2+/+* T <.<.<.<.<.<.<.<.<.<.{ 7.l.E.l.7.#.V I u z 5+3+`.f.8 8   ",
"    p e.}.6+: B 5.y L T f.7.d.W.[+5 <.<.<.<.<.<.<.<.<.<.<.<.< D t.c.m.} X T L y 5.7+6+}.e.p     ",
"    D e.!.d.l.8+b z u H Q D !.0.J :.<.<.<.<.<.<.<.<.<.<.<.<.<.:.].>.;.@.U H u z 3 l.d.!.e.D     ",
"    e.e.=.m.3+< a h s w _ ) 6 ;.,.].:.<.<.<.<.<.<.<.<.<.<.<.:.].,.;.%.V I w s h n 3+m.=.e.e.    ",
"      e.=.o.d.9+0+r d y 4.Z V @.-.,.>.].:.:.<.<.<.<.<.:.:.].>.,.-.@.V J ^.y d g.9+d.o.=.e.      ",
"        f.=.7.j.J.a+&.g Z ^.I U X #.;.,.>.>.].].].].].>.>.,.;.#.X U I ^.Z g 8+J.j.7.=.f.        ",
"        e.f.[+m.6+j.7 b g y w H T V @.#.-.,.,.,.,.,.,.,.-.#.@.V T H w y g x.j.6+m.[+f.e.        ",
"          f.=.o.t.3+j.a+&.d s u L I Y V X @.%.%.#.%.%.@.X V Y I L u s d +.j.3+t.o.=.f.          ",
"            =.[+o.t.6+k.4.r h z y u L H J T Y U U U Y T J H L u y z h b+k.6+t.o.[+=.            ",
"              =.[+o.`.A.L.~ c+b 5.z y x v ^.L G G G L ^.v x y z 5.3 ) L.A.`.o.[+=.              ",
"                [+[+o.`.c.l.k.> 0 b h g z M s y y y s M z g h 5+- k.l.c.`.o.[+[+                ",
"                  =.[+!.7.d+A.J.k./ e+3 &.F.I.h c h I.F.4 1 ).k.J.A.d+7.!.[+=.                  ",
"                    =.[+!.o.7.d+j.3+k.E.d+D ^ O O ^ D d+E.k.3+j.d+7.o.!.[+=.                    ",
"                        =.[+!.o.7.`.d+c.A.6+3+(+(+3+6+A.c.d+`.7.o.!.[+=.                        ",
"                          !.[+!.!.o.}.7.m.`.`.t.t.`.`.m.7.}.o.!.!.[+!.                          ",
"                                [+!.!.!.!.o.o.o.o.o.o.!.!.!.!.[+                                ",
"                                      !.!.[+[+!.!.[+[+!.!.                                      "};
