/* XPM */
static const char * start_48x48_xpm[] = {
"48 48 214 2",
"  	g None",
". 	g #868686",
"+ 	g #848484",
"@ 	g #838383",
"# 	g #828282",
"$ 	g #818181",
"% 	g #808080",
"& 	g #7E7E7E",
"* 	g #7D7D7D",
"= 	g #7C7C7C",
"- 	g #7A7A7A",
"; 	g #797979",
"> 	g #777777",
", 	g #747474",
"' 	g #707070",
") 	g #6D6D6D",
"! 	g #6B6B6B",
"~ 	g #696969",
"{ 	g #686868",
"] 	g #727272",
"^ 	g #676767",
"/ 	g #616161",
"( 	g #5C5C5C",
"_ 	g #656565",
": 	g #767676",
"< 	g #6A6A6A",
"[ 	g #626262",
"} 	g #5D5D5D",
"| 	g #717171",
"1 	g #8E8E8E",
"2 	g #B1B1B1",
"3 	g #BCBCBC",
"4 	g #BFBFBF",
"5 	g #C1C1C1",
"6 	g #C3C3C3",
"7 	g #B2B2B2",
"8 	g #5B5B5B",
"9 	g #B4B4B4",
"0 	g #BEBEBE",
"a 	g #C6C6C6",
"b 	g #CECECE",
"c 	g #D5D5D5",
"d 	g #D8D8D8",
"e 	g #DBDBDB",
"f 	g #DCDCDC",
"g 	g #DADADA",
"h 	g #D4D4D4",
"i 	g #CFCFCF",
"j 	g #C9C9C9",
"k 	g #C4C4C4",
"l 	g #B7B7B7",
"m 	g #787878",
"n 	g #6F6F6F",
"o 	g #666666",
"p 	g #5A5A5A",
"q 	g #ADADAD",
"r 	g #CACACA",
"s 	g #E0E0E0",
"t 	g #E4E4E4",
"u 	g #E5E5E5",
"v 	g #E6E6E6",
"w 	g #E7E7E7",
"x 	g #E3E3E3",
"y 	g #E1E1E1",
"z 	g #DDDDDD",
"A 	g #D6D6D6",
"B 	g #C7C7C7",
"C 	g #6C6C6C",
"D 	g #595959",
"E 	g #949494",
"F 	g #C8C8C8",
"G 	g #EAEAEA",
"H 	g #ECECEC",
"I 	g #EDEDED",
"J 	g #EEEEEE",
"K 	g #EBEBEB",
"L 	g #E9E9E9",
"M 	g #DFDFDF",
"N 	g #959595",
"O 	g #757575",
"P 	g #606060",
"Q 	g #5E5E5E",
"R 	g #A3A3A3",
"S 	g #C0C0C0",
"T 	g #EFEFEF",
"U 	g #F1F1F1",
"V 	g #F2F2F2",
"W 	g #F3F3F3",
"X 	g #F4F4F4",
"Y 	g #F0F0F0",
"Z 	g #E2E2E2",
"` 	g #DEDEDE",
" .	g #A7A7A7",
"..	g #5F5F5F",
"+.	g #AEAEAE",
"@.	g #F5F5F5",
"#.	g #F7F7F7",
"$.	g #F8F8F8",
"%.	g #F6F6F6",
"&.	g #CDCDCD",
"*.	g #737373",
"=.	g #565656",
"-.	g #F9F9F9",
";.	g #FAFAFA",
">.	g #FCFCFC",
",.	g #FBFBFB",
"'.	g #A8A8A8",
").	g #636363",
"!.	g #545454",
"~.	g #939393",
"{.	g #FDFDFD",
"].	g #E8E8E8",
"^.	g #969696",
"/.	g #919191",
"(.	g #989898",
"_.	g #FEFEFE",
":.	g #FFFFFF",
"<.	g #6E6E6E",
"[.	g #525252",
"}.	g #898989",
"|.	g #909090",
"1.	g #D1D1D1",
"2.	g #7F7F7F",
"3.	g #515151",
"4.	g #B3B3B3",
"5.	g #8B8B8B",
"6.	g #9C9C9C",
"7.	g #D7D7D7",
"8.	g #575757",
"9.	g #CBCBCB",
"0.	g #505050",
"a.	g #8A8A8A",
"b.	g #646464",
"c.	g #4B4B4B",
"d.	g #B0B0B0",
"e.	g #585858",
"f.	g #555555",
"g.	g #535353",
"h.	g #BDBDBD",
"i.	g #4D4D4D",
"j.	g #4C4C4C",
"k.	g #4E4E4E",
"l.	g #D0D0D0",
"m.	g #4F4F4F",
"n.	g #4A4A4A",
"o.	g #464646",
"p.	g #454545",
"q.	g #484848",
"r.	g #D3D3D3",
"s.	g #494949",
"t.	g #434343",
"u.	g #3F3F3F",
"v.	g #414141",
"w.	g #444444",
"x.	g #999999",
"y.	g #3E3E3E",
"z.	g #3A3A3A",
"A.	g #373737",
"B.	g #353535",
"C.	g #404040",
"D.	g #CCCCCC",
"E.	g #363636",
"F.	g #2C2C2C",
"G.	g #212121",
"H.	g #171717",
"I.	g #0D0D0D",
"J.	g #040404",
"K.	g #070707",
"L.	g #111111",
"M.	g #1B1B1B",
"N.	g #252525",
"O.	g #2F2F2F",
"P.	g #393939",
"Q.	g #222222",
"R.	g #181818",
"S.	g #0E0E0E",
"T.	g #060606",
"U.	g #090909",
"V.	g #121212",
"W.	g #303030",
"X.	g #383838",
"Y.	g #2E2E2E",
"Z.	g #242424",
"`.	g #141414",
" +	g #0F0F0F",
".+	g #101010",
"++	g #161616",
"@+	g #1F1F1F",
"#+	g #282828",
"$+	g #313131",
"%+	g #3B3B3B",
"&+	g #323232",
"*+	g #292929",
"=+	g #1D1D1D",
"-+	g #858585",
";+	g #232323",
">+	g #2A2A2A",
",+	g #878787",
"'+	g #3C3C3C",
")+	g #2B2B2B",
"!+	g #2D2D2D",
"~+	g #3D3D3D",
"{+	g #343434",
"]+	g #333333",
"^+	g #B6B6B6",
"/+	g #C5C5C5",
"(+	g #474747",
"_+	g #7B7B7B",
":+	g #AFAFAF",
"<+	g #8F8F8F",
"[+	g #979797",
"}+	g #A4A4A4",
"|+	g #424242",
"1+	g #B5B5B5",
"                                      . . . . . . . . . .                                       ",
"                                + + + @ @ # # # # # # @ @ + + +                                 ",
"                          # # # $ % & * = - ; ; ; ; - = * & % $ # # #                           ",
"                        % % & = - > , ' ) ! ~ { { ~ ! ) ' , > - = & % %                         ",
"                    & & * - > ] ) ^ / ( _ ) : % % : ) _ ( / ^ ) ] > - * & &                     ",
"                  = = - : ' < [ } | 1 2 3 4 5 6 6 6 5 4 7 1 | } [ < ' : - = =                   ",
"                - ; : | ! / 8 $ 9 0 a b c d e f f g d h i j k l $ 8 / ! | : ; -                 ",
"              ; m , n o p > q 4 r d s t u v w w v v t x y z A b B 2 > p o n , m ;               ",
"            > : ] C / D E 3 F d t w G G H I J J J I H K L u x M d b a N D / C ] : >             ",
"          : O ] ! P Q R S c x L K I T U V W W X W W V U Y J G v Z ` h r  .Q P ! ] O :           ",
"        , , ' < ..( +.5 g w K J Y V X @.#.#.$.$.$.#.#.%.@.W U J G u s d &.9 ( ..< ' , ,         ",
"        *.| ! / =.R 5 e L H Y V X %.$.-.;.>.>.>.>.>.>.,.;.$.%.W Y H w y g b '.=./ ! | *.        ",
"      ] ' C ).!.~.S g L I U W %.$.-.9 W {.{.{.{.{.{.{.>.>.,.;.#.X U I ].Z g &.^.!.).C ' ]       ",
"    ' ' ) _ D *.3 A L I U X #.$.,.>./.(.d _.:.:.:.:.:._._.{.>.,.-.@.V J ].y d r , D _ ) ' '     ",
"    <.C { Q [.q r w I U X #.-.>.>._./.1 }.q @.:.:.:.:.:.:.:._.{.,.;.%.V I w s h l [.Q { C <.    ",
"    ) < ).=.* 4 f H Y X %.-.>.{._._.|.}.@ & @ 1.:.:.:.:.:.:.:._.{.>.;.@.U H u z b 2.=.).< )     ",
"  ! < o } 3.4.r L J V %.$.,.>._._.:.5.@ * > | ) 6.V :.:.:.:.:.:._.{.,.-.X T L y 7.0 3.} o < !   ",
"  < { ).8.~ 0 f I U @.#.;.{._._.:.:.. & : ' ! o ).) 9.:.:.:.:.:.:._.{.,.#.V I u z b < 8.).{ <   ",
"  { _ Q 0.a.B ].T W %.-.>.{._.:.:.:.$ m | < b...( p p /.V :.:.:.:.:._.>.;.@.Y L y h |.0.Q _ {   ",
"^ ^ ).8 c.d.j y T X $.;.{._.:.:.:.:.= , ! b.} e.f.[.g.!.b.F :.:.:.:.:.{.,.#.V H x g h.c.8 ).^ ^ ",
"_ b.P =.=.3 &.z w V -.,.{._.:.:.:.:.m n _ Q =.3.i.c.j.k.[.f./.V :.:.:._.>.-.X J v z &.=.=.P b._ ",
"b.).Q !.P 4 l.M ].T @.>.{._.:.:.:.:.O ! / e.m.n.o.p.o.q.i.3.=.~ 9.:.:._.>.,.@.T ].M l./ !.Q ).b.",
").[ } 3.! 5 r.s L Y %.,.{.:.:.:.:.:.] ^ ( g.s.t.u.u.v.w.s.k.g.p ..x.V :.{.,.%.Y L s r.) 3.} [ ).",
"[ / 8 0.> 6 h y G U %.,.{.:.:.:.:.:.f.g.j.p.y.z.A.B.A.z.C.t.s.0.D ).] D.{.,.%.U G y h - 0.8 / [ ",
"/ P p m.: 6 c y G U #.,.{.:.:.:.:.:.E.F.G.H.I.J.K.L.M.N.O.P.w.k.e.[ ] D.{.,.#.U G y c ; m.p P / ",
"P ..p m.< 6 h y G U %.,.{.:.:.:.:.:.E.F.Q.R.S.T.U.V.M.N.W.z.w.k.e.^.V :.{.,.%.U G y h C m.p ..P ",
"..Q p m.} 5 r.s L Y %.,.{.:.:.:.:.:.X.Y.Z.M.`. +.+++@+#+$+%+p.} F :.:.:.{.,.%.Y L s r.Q m.p Q ..",
"Q Q p 0.[.4 l.M ].T @.,.>._.:.:.:.:.%+&+*+G.M.R.R.=+Z.F.B.y.-+U :.:.:._.>.,.@.T ].M l.[.0.p Q Q ",
"} } p [.w.d.&.z v J X -.>._.:.:.:.:.u.E.O.#+;+G.G.N.>+$+s.S :.:.:.:.:._.>.-.X J v z 4 w.[.p } } ",
"  } 8 !.q.,+j g x H V #.,.{.:.:.:.:.w.'+B.W.)+*+>+!+$+- T :.:.:.:.:.:.{.,.#.V H x g |.q.!.8 }   ",
"  ( 8 =.c.).k h y L Y @.;.>._.:.:.:.n.t.~+X.{+&+]+o.h.:.:.:.:.:.:.:._.>.;.@.Y L y h o c.=.8 (   ",
"  8 8 8.m.o.^+b z u I V #.,.{._.:.:.0.n.w.C.~+%+* T :.:.:.:.:.:.:._.{.,.#.V I u z /+o.m.8.8 8   ",
"    p e.[.(+: B 7.y L T X -.,.{._.:.8.3.j.q.f.5 :.:.:.:.:.:.:.:._.{.,.-.X T L y 7._+(+[.e.p     ",
"    D e.!.j.w.:+b z u H U @.;.>.{._.Q D !.5.Y :.:.:.:.:.:.:.:._.{.>.;.@.U H u z 3 w.j.!.e.D     ",
"    e.e.=.0.o.< a h s w I V %.;.,.{._ <.j :.:.:.:.:.:.:.:.:._.{.,.;.%.V I w s h n o.0.=.e.e.    ",
"      e.=.g.j.v.<+r d y ].J V @.-.,.[+Y _._.:.:.:.:.:._._.{.>.,.-.@.V J ].y d (.v.j.g.=.e.      ",
"        8.=.3.n.t.}+&.g Z ].I U X #.;.,.>.>.{.{.{.{.{.>.>.,.;.#.X U I ].Z g :+t.n.3.=.8.        ",
"        e.8.f.0.(+n.7 b g y w H T V @.#.-.,.,.,.,.,.,.,.-.#.@.V T H w y g h.n.(+0.f.8.e.        ",
"          8.=.g.k.o.n.}+&.d s u L I Y V X @.%.%.#.%.%.@.X V Y I L u s d +.n.o.k.g.=.8.          ",
"            =.f.g.k.(+|+|.r h z y u L H J T Y U U U Y T J H L u y z h [+|+(+k.g.f.=.            ",
"              =.f.g.m.s.C.~ 1+b 7.z y x v ].L G G G L ].v x y z 7.3 ) C.s.m.g.f.=.              ",
"                f.f.g.m.c.w.|+> 0 b h g z M s y y y s M z g h /+- |+w.c.m.g.f.f.                ",
"                  =.f.!.3.i.s.t.|+/ 5.3 &.l.r.h c h r.l.4 1 ).|+t.s.i.3.!.f.=.                  ",
"                    =.f.!.g.3.i.n.o.|+u.i.D ^ O O ^ D i.u.|+o.n.i.3.g.!.f.=.                    ",
"                        =.f.!.g.3.m.i.c.s.(+o.p.p.o.(+s.c.i.m.3.g.!.f.=.                        ",
"                          !.f.!.!.g.[.3.0.m.m.k.k.m.m.0.3.[.g.!.!.f.!.                          ",
"                                f.!.!.!.!.g.g.g.g.g.g.!.!.!.!.f.                                ",
"                                      !.!.f.f.!.!.f.f.!.!.                                      "};
