/* XPM */
static const char * Thermometer_xpm[] = {
"48 48 143 2",
"  	c None",
". 	c #000000",
"+ 	c #010100",
"@ 	c #020200",
"# 	c #000100",
"$ 	c #000002",
"% 	c #000004",
"& 	c #000001",
"* 	c #010004",
"= 	c #010200",
"- 	c #576800",
"; 	c #637700",
"> 	c #010005",
", 	c #020300",
"' 	c #687D00",
") 	c #728B00",
"! 	c #030300",
"~ 	c #000005",
"{ 	c #6E9500",
"] 	c #6B9700",
"^ 	c #050600",
"/ 	c #000007",
"( 	c #709800",
"_ 	c #699900",
": 	c #030400",
"< 	c #010008",
"[ 	c #6E9600",
"} 	c #6B9B00",
"| 	c #010101",
"1 	c #010103",
"2 	c #6C9200",
"3 	c #6D9800",
"4 	c #000003",
"5 	c #000108",
"6 	c #658B00",
"7 	c #6B9400",
"8 	c #010006",
"9 	c #060700",
"0 	c #00000C",
"a 	c #000105",
"b 	c #628900",
"c 	c #6B9500",
"d 	c #010012",
"e 	c #00020E",
"f 	c #608600",
"g 	c #6C9500",
"h 	c #010014",
"i 	c #00000B",
"j 	c #6D9600",
"k 	c #040500",
"l 	c #080A00",
"m 	c #070600",
"n 	c #000103",
"o 	c #648A00",
"p 	c #6C9400",
"q 	c #0B0D00",
"r 	c #020301",
"s 	c #0C0E00",
"t 	c #080900",
"u 	c #030100",
"v 	c #648300",
"w 	c #6A8D00",
"x 	c #709700",
"y 	c #6F9A00",
"z 	c #628500",
"A 	c #01000B",
"B 	c #020004",
"C 	c #090B00",
"D 	c #4E6800",
"E 	c #6F9100",
"F 	c #799F00",
"G 	c #749B00",
"H 	c #6B9600",
"I 	c #6B9100",
"J 	c #6C8200",
"K 	c #010203",
"L 	c #020010",
"M 	c #020013",
"N 	c #03000E",
"O 	c #020003",
"P 	c #5D7700",
"Q 	c #779C00",
"R 	c #78A300",
"S 	c #71A300",
"T 	c #659D00",
"U 	c #6AA200",
"V 	c #72A100",
"W 	c #638C00",
"X 	c #04000F",
"Y 	c #070003",
"Z 	c #779800",
"` 	c #779D00",
" .	c #78A600",
"..	c #73A800",
"+.	c #6AA300",
"@.	c #6EA700",
"#.	c #629000",
"$.	c #04000E",
"%.	c #060003",
"&.	c #637F00",
"*.	c #769C00",
"=.	c #7BA700",
"-.	c #77A900",
";.	c #71A700",
">.	c #6FA000",
",.	c #628D00",
"'.	c #020008",
").	c #03000C",
"!.	c #020005",
"~.	c #5E7700",
"{.	c #749600",
"].	c #7AA200",
"^.	c #77A800",
"/.	c #73A500",
"(.	c #6E9900",
"_.	c #5E8300",
":.	c #020006",
"<.	c #04000B",
"[.	c #030007",
"}.	c #526B00",
"|.	c #698900",
"1.	c #719700",
"2.	c #769F00",
"3.	c #719A00",
"4.	c #6E9700",
"5.	c #101100",
"6.	c #010106",
"7.	c #5B7900",
"8.	c #628300",
"9.	c #658900",
"0.	c #5C7C00",
"a.	c #070400",
"b.	c #040006",
"c.	c #090900",
"d.	c #050002",
"e.	c #060007",
"f.	c #010007",
"g.	c #030004",
"h.	c #07000A",
"i.	c #050007",
"j.	c #000106",
"k.	c #000101",
"l.	c #020400",
"                                                                                                ",
"                                                                                                ",
"                                                                                                ",
"                                            . . . .                                             ",
"                                        . . . . . . . .                                         ",
"                                      . . . . . . . . . .                                       ",
"                                      . . .         . . .                                       ",
"                                    . . .             . . .     . . . . . . .                   ",
"                                    . + .             . . .     . . . . . . .                   ",
"                                    . @ #             . . .     . . . . . . .                   ",
"                                    . @ .             . . .                                     ",
"                                    # . $             . . .                                     ",
"                                    # . %             . . .                                     ",
"                                    + $ $             . . .                                     ",
"                                    . $ &             . . .     . . . . . . .                   ",
"                                    * $ =     - ;     . . .     . . . . . . .                   ",
"                                    > $ ,     ' )     . . .                                     ",
"                                    + ! ~     { ]     . . .                                     ",
"                                    = ^ /     ( _     . . .                                     ",
"                                    = ^ /     ( _     . . .                                     ",
"                                    = ^ /     ( _     . . .     . . . . . . .                   ",
"                                    : ^ <     [ }     . . .     . . . . . . .                   ",
"                                    = ^ /     [ }     . . .                                     ",
"                                    = ^ /     [ }     . . .                                     ",
"                                    = ^ /     [ }     . . .                                     ",
"                                    # | 1     2 3     . . 4                                     ",
"                                    4 5 #     6 7     = . 8     + 9 @ . . . .                   ",
"                                    4 0 a     b c     . . .     @ @ . . . . .                   ",
"                                    4 d e     f g     ~ . :                                     ",
"                                    4 h i     f j     ~ k l                                     ",
"                                  m & i n     o p     . 9 q l                                   ",
"                                + m + r       p j       s t r %                                 ",
"                                . u !     v w x y z       + < A                                 ",
"                              . . B C   D E F G H I J     K L M N                               ",
"                              . . O     P Q R S T U V W     A X ~                               ",
"                              . . Y     Z `  ...+.@...#.    A $.4                               ",
"                              . . %.    &.*.=.-.;...>.,.    '.).~                               ",
"                              . & !.    ~.{.].=.^./.(._.    :.<.8                               ",
"                              . & [.q   }.|.1.2.3.4._.    5.B '.6.                              ",
"                                & '..       7.8.9.0.      a.b.>                                 ",
"                                & < 8 ^                 c.d.e.f.                                ",
"                                  / < % &             | g.h.i.                                  ",
"                                    8 > j.n k.. l.# 8 :.i.i.                                    ",
"                                      . . . . . . . . . .                                       ",
"                                          . . . . . .                                           ",
"                                                                                                ",
"                                                                                                ",
"                                                                                                "};
