/* XPM */
static const char * Touch_Screen_48x48_xpm[] = {
"48 48 407 2",
"  	c None",
". 	c #C7CFD5",
"+ 	c #B8BDC4",
"@ 	c #C4CBD4",
"# 	c #C4C9CF",
"$ 	c #BEC7D1",
"% 	c #D2D7DD",
"& 	c #B4C0CB",
"* 	c #E6E9EC",
"= 	c #949DA8",
"- 	c #ADB8C6",
"; 	c #F5F6F7",
"> 	c #A0A8B3",
", 	c #A4B1C0",
"' 	c #EEF1F3",
") 	c #B2B9C4",
"! 	c #9CA9BB",
"~ 	c #E7EAEE",
"{ 	c #C2CAD2",
"] 	c #6A7686",
"^ 	c #94A4B5",
"/ 	c #DEE3E8",
"( 	c #CFD4DD",
"_ 	c #737C8D",
": 	c #8C9BB0",
"< 	c #D6DCE3",
"[ 	c #D6DBE3",
"} 	c #80899A",
"| 	c #8394A9",
"1 	c #CCD4DC",
"2 	c #D8DEE3",
"3 	c #909AAB",
"4 	c #7A8DA4",
"5 	c #C2CAD4",
"6 	c #DADFE4",
"7 	c #A0ABB7",
"8 	c #B8C2CD",
"9 	c #E2E6EB",
"0 	c #AFB9C4",
"a 	c #556479",
"b 	c #AFB9C7",
"c 	c #FCFCFC",
"d 	c #B9C2CD",
"e 	c #59647B",
"f 	c #6C839D",
"g 	c #758CA5",
"h 	c #7289A1",
"i 	c #A3AFBD",
"j 	c #F4F5F6",
"k 	c #C1CAD4",
"l 	c #637085",
"m 	c #7489A3",
"n 	c #667F9A",
"o 	c #6E849F",
"p 	c #798FA8",
"q 	c #7A8FA8",
"r 	c #8A9BB0",
"s 	c #8395AC",
"t 	c #8E9EB1",
"u 	c #8799AE",
"v 	c #8295AC",
"w 	c #778CA5",
"x 	c #96A5B5",
"y 	c #EBEEF1",
"z 	c #C6CFD9",
"A 	c #707C91",
"B 	c #70859E",
"C 	c #617995",
"D 	c #627791",
"E 	c #758BA4",
"F 	c #7E93AB",
"G 	c #667C94",
"H 	c #6E849C",
"I 	c #8093AC",
"J 	c #90A3B8",
"K 	c #94A5B9",
"L 	c #A1B0C1",
"M 	c #8397AE",
"N 	c #899CB1",
"O 	c #7D91A9",
"P 	c #8B9AAE",
"Q 	c #E1E5EA",
"R 	c #CDD5DD",
"S 	c #7D8B9C",
"T 	c #697B94",
"U 	c #677C98",
"V 	c #5A6A82",
"W 	c #7C91A9",
"X 	c #8297AE",
"Y 	c #8196AD",
"Z 	c #7F94AC",
"` 	c #8297AD",
" .	c #8493A5",
"..	c #D8DDE2",
"+.	c #D4DAE0",
"@.	c #8997A8",
"#.	c #5F708A",
"$.	c #6D809B",
"%.	c #5C6B81",
"&.	c #8497AE",
"*.	c #879BB1",
"=.	c #788DA4",
"-.	c #687D96",
";.	c #788A9D",
">.	c #C9D0D9",
",.	c #D8DEE4",
"'.	c #95A0B0",
").	c #51607C",
"!.	c #6C8098",
"~.	c #8599AF",
"{.	c #73869F",
"].	c #657289",
"^.	c #8A9CB3",
"/.	c #8B9EB4",
"(.	c #5D738D",
"_.	c #657B95",
":.	c #6B7F97",
"<.	c #BEC7D0",
"[.	c #C4CDD4",
"}.	c #98A3B2",
"|.	c #55637E",
"1.	c #667C95",
"2.	c #6D839A",
"3.	c #7A8BA5",
"4.	c #6F7A92",
"5.	c #90A2B7",
"6.	c #8FA1B6",
"7.	c #617790",
"8.	c #697F98",
"9.	c #6B7F98",
"0.	c #AEB7C3",
"a.	c #DCE0E5",
"b.	c #A7B2C0",
"c.	c #4E5D77",
"d.	c #6B8098",
"e.	c #8292A9",
"f.	c #333945",
"g.	c #758199",
"h.	c #94A6BA",
"i.	c #6D829B",
"j.	c #6B8199",
"k.	c #9DA8B6",
"l.	c #EAEDF0",
"m.	c #B2BAC7",
"n.	c #505E78",
"o.	c #6C819A",
"p.	c #6D8199",
"q.	c #8897AD",
"r.	c #404754",
"s.	c #78849B",
"t.	c #98AABC",
"u.	c #8FA1B4",
"v.	c #6F849D",
"w.	c #8F9AAA",
"x.	c #F3F4F5",
"y.	c #B7C1CD",
"z.	c #54627B",
"A.	c #6E839C",
"B.	c #6E839A",
"C.	c #8C9CB1",
"D.	c #495060",
"E.	c #9DADBF",
"F.	c #90A1B4",
"G.	c #72879E",
"H.	c #7489A0",
"I.	c #8391A2",
"J.	c #E8E9EC",
"K.	c #C0C9D3",
"L.	c #5B687F",
"M.	c #70859B",
"N.	c #909EB2",
"O.	c #505769",
"P.	c #76849B",
"Q.	c #A1B1C2",
"R.	c #778CA3",
"S.	c #788CA3",
"T.	c #7C8D9E",
"U.	c #D9DCE1",
"V.	c #C6CED7",
"W.	c #636F87",
"X.	c #6F8098",
"Y.	c #73879E",
"Z.	c #A0B0C2",
"`.	c #93A2B5",
" +	c #555E72",
".+	c #74839C",
"++	c #A6B5C5",
"@+	c #7C90A7",
"#+	c #7A8BA0",
"$+	c #CAD0D5",
"%+	c #CCD3DB",
"&+	c #6D7A8E",
"*+	c #6B7E96",
"=+	c #7B8FA8",
"-+	c #7A8DA9",
";+	c #7486A2",
">+	c #A2B1C6",
",+	c #A4B2C6",
"'+	c #97A6B8",
")+	c #5A667B",
"!+	c #73839C",
"~+	c #AAB9C8",
"{+	c #8093A9",
"]+	c #7B8CA0",
"^+	c #BDC3CC",
"/+	c #D2D9E0",
"(+	c #798598",
"_+	c #667992",
":+	c #7F92A9",
"<+	c #7C8FA9",
"[+	c #7B8DAB",
"}+	c #798CAB",
"|+	c #7A8CAC",
"1+	c #7B8EAC",
"2+	c #7589A5",
"3+	c #A6B4C9",
"4+	c #A8B7C9",
"5+	c #9FADBC",
"6+	c #5D6B82",
"7+	c #76859D",
"8+	c #AFBCCB",
"9+	c #90A0B4",
"0+	c #8497AC",
"a+	c #7C8FA3",
"b+	c #B1B8C3",
"c+	c #D5DBE3",
"d+	c #8B96A9",
"e+	c #596883",
"f+	c #8295AB",
"g+	c #7E90AA",
"h+	c #7789AB",
"i+	c #798BAD",
"j+	c #7A8DAD",
"k+	c #7C8EAE",
"l+	c #7D90AE",
"m+	c #8193AE",
"n+	c #7A8EA6",
"o+	c #ACB9C9",
"p+	c #61728A",
"q+	c #7C8CA3",
"r+	c #B3C0CE",
"s+	c #91A3B5",
"t+	c #8EA0B4",
"u+	c #8D9FB3",
"v+	c #8C9EB2",
"w+	c #8B9DB2",
"x+	c #889BB0",
"y+	c #879AAF",
"z+	c #8497AD",
"A+	c #808A9A",
"B+	c #D1D7DD",
"C+	c #9EA8B8",
"D+	c #4D5C79",
"E+	c #7D90AA",
"F+	c #7689A8",
"G+	c #7386A9",
"H+	c #7587AB",
"I+	c #7789AC",
"J+	c #798CAD",
"K+	c #7B8EAF",
"L+	c #7F92AF",
"M+	c #8496B0",
"N+	c #7E91A7",
"O+	c #677A93",
"P+	c #313C49",
"Q+	c #8496AB",
"R+	c #B7C4D1",
"S+	c #93A4B7",
"T+	c #96A7BA",
"U+	c #95A6B9",
"V+	c #94A5B8",
"W+	c #929DAF",
"X+	c #93A1B4",
"Y+	c #7B879D",
"Z+	c #495673",
"`+	c #8A9BB1",
" @	c #889AB0",
".@	c #7486A5",
"+@	c #6F80A3",
"@@	c #7183A6",
"#@	c #7485A8",
"$@	c #7587AA",
"%@	c #788AAC",
"&@	c #7F90AF",
"*@	c #8597B1",
"=@	c #8A9CB2",
"-@	c #8194AA",
";@	c #697E98",
">@	c #384555",
",@	c #91A2B6",
"'@	c #BCC8D4",
")@	c #95A6B8",
"!@	c #9AAABC",
"~@	c #9AA9BA",
"{@	c #BAC2CD",
"]@	c #92A1B1",
"^@	c #647189",
"/@	c #8191A8",
"(@	c #7F8FA8",
"_@	c #7787A4",
":@	c #7887A5",
"<@	c #7787A7",
"[@	c #7888A8",
"}@	c #7989AA",
"|@	c #8091AE",
"1@	c #8799B2",
"2@	c #8EA0B5",
"3@	c #8FA1B5",
"4@	c #8699AE",
"5@	c #BAC6D2",
"6@	c #6C829E",
"7@	c #3D4E60",
"8@	c #9FB0C3",
"9@	c #C0CBD7",
"0@	c #97A7BB",
"a@	c #9EADBF",
"b@	c #98A5B6",
"c@	c #9FAEBF",
"d@	c #66748A",
"e@	c #707E98",
"f@	c #74839E",
"g@	c #7685A1",
"h@	c #7988A5",
"i@	c #7E8EAA",
"j@	c #8B9AB3",
"k@	c #95A5BA",
"l@	c #9EACBF",
"m@	c #9DACBE",
"n@	c #9BABBD",
"o@	c #99A9BC",
"p@	c #96A6BA",
"q@	c #93A4B8",
"r@	c #8C9FB4",
"s@	c #B9C5D2",
"t@	c #7087A2",
"u@	c #46586F",
"v@	c #AEBDCE",
"w@	c #C5CFDA",
"x@	c #A1B1C1",
"y@	c #A3B3C3",
"z@	c #7E92A6",
"A@	c #65748A",
"B@	c #6F7E95",
"C@	c #75849D",
"D@	c #7F8EA6",
"E@	c #8C9BB1",
"F@	c #99A8BB",
"G@	c #A1B0C0",
"H@	c #9EAEBF",
"I@	c #9BACBD",
"J@	c #99AABB",
"K@	c #97A8BA",
"L@	c #92A4B7",
"M@	c #738CA8",
"N@	c #596C87",
"O@	c #B7C5D5",
"P@	c #C9D3DD",
"Q@	c #9CADBF",
"R@	c #A5B3C3",
"S@	c #A9B6C5",
"T@	c #A1B0BF",
"U@	c #9DABBC",
"V@	c #A4B3C3",
"W@	c #9EADC0",
"X@	c #BBC7D4",
"Y@	c #7B92B2",
"Z@	c #687A9D",
"`@	c #C2CDDB",
" #	c #CED7E0",
".#	c #B6C4D1",
"+#	c #9CADBE",
"@#	c #9BACBE",
"##	c #A0AFC1",
"$#	c #879BBE",
"%#	c #7384B1",
"&#	c #CCD5E1",
"*#	c #D2DAE3",
"=#	c #96A6CC",
"-#	c #7C8BC0",
";#	c #D6DDE6",
">#	c #D7DEE6",
",#	c #A6B3D9",
"'#	c #313854",
")#	c #8592CD",
"!#	c #DBE2E9",
"~#	c #B1BBE2",
"{#	c #4E5576",
"]#	c #8D97D8",
"^#	c #DEE5EA",
"/#	c #BAC3E7",
"(#	c #656E98",
"_#	c #999FE5",
":#	c #EFF1F4",
"<#	c #CCD0F1",
"[#	c #7C81B3",
"}#	c #8F96E7",
"|#	c #AFBBCA",
"1#	c #A4AFD4",
"2#	c #7A80BE",
"3#	c #808CCD",
"4#	c #7187A1",
"5#	c #7588AF",
"6#	c #747CBC",
"7#	c #46495E",
"8#	c #6C7190",
"9#	c #676C89",
"0#	c #15171D",
"                                                                                                ",
"                                                                                                ",
"                                                                                      . +       ",
"                                                                                    @ #         ",
"                                                                                  $ %           ",
"                                                                                & * =           ",
"                                                                              - ; >             ",
"                                                                            , ' )               ",
"                                                                          ! ~ { ]               ",
"                                                                        ^ / ( _                 ",
"                                                                      : < [ }                   ",
"                                                                    | 1 2 3                     ",
"                                                                  4 5 6 7                       ",
"                                                                  8 9 0 a                       ",
"                                                                b c d e                         ",
"          f g g g g g g g g g g g g g g g g g g g g g g g g h i j k l m g g g g g n             ",
"          o p p p p p p p p p p p p p p q r s t u v p p p w x y z A B p p p p p p C             ",
"        D E F F F G H F F F F F F F F F I J K L M N F F O P Q R S T F F F F F F F U             ",
"        V W X X X Y X X X X X X X X X X X X Y Z X X X `  ...+.@.#.X X X X X X X X $.            ",
"        %.&.*.*.=.-.-.-.-.-.-.-.-.-.-.-.-.-.-.-.-.-.-.;.>.,.'.).-.-.-.-.-.!.~.*.*.{.            ",
"        ].^././.(._._._._._._._._._._._._._._._._._.:.<.[.}.|.1._._._._._._.2././.3.            ",
"        4.5.5.6.7.8.8.8.8.8.8.8.8.8.8.8.8.8.8.8.8.9.0.a.b.c.8.8.8.8.8.8.8.8.d.5.5.e.f.          ",
"        g.h.h.6.1.i.i.i.i.i.i.i.i.i.i.i.i.i.i.i.j.k.l.m.n.o.i.i.i.i.i.i.i.i.p.h.h.q.r.          ",
"        s.t.t.u.o.B B B B B B B B B B B B B B v.w.x.y.z.A.B B B B B B B B B B.t.t.C.D.          ",
"        s.E.E.F.G.H.H.H.H.H.H.H.H.H.H.H.H.H.H.I.J.K.L.B.H.H.H.H.H.H.H.H.H.H.M.E.E.N.O.          ",
"        P.Q.Q.u.R.S.S.S.S.S.S.S.S.S.S.S.S.S.T.U.V.W.X.S.S.S.S.S.S.S.S.S.S.S.Y.Z.Z.`. +          ",
"        .+++++F.@+@+@+@+@+@+@+@+@+@+@+@+@+#+$+%+&+*+@+@+@+@+@+@+@+@+@+@+=+-+;+>+,+'+)+          ",
"        !+~+~+u.{+{+{+{+{+{+{+{+{+{+{+{+]+^+/+(+_+{+{+{+{+{+{+{+:+<+[+}+|+1+2+3+4+5+6+          ",
"        7+8+8+9+0+0+0+0+0+0+0+0+0+0+0+a+b+c+d+e+0+0+0+0+0+f+g+}+h+i+j+k+l+m+n+8+8+o+p+          ",
"        q+r+r+s+t+u+v+w+N x+y+y+y+y+z+A+B+C+D+y+y+y+z+E+F+G+H+I+J+K+L+M+y+y+N+r+r+r+O+          ",
"      P+Q+R+R+S+T+T+T+T+T+T+T+U+V+S+W+X+Y+Z+`+ @E+.@+@@@#@$@%@&@*@=@w+w+w+w+-@R+R+R+;@          ",
"      >@,@'@'@)@!@!@!@!@!@!@!@!@!@~@{@]@^@/@(@_@:@<@[@}@|@1@2@3@3@3@3@3@3@3@4@5@'@'@6@          ",
"      7@8@9@9@0@a@a@a@a@a@a@a@a@a@b@c@d@e@f@g@h@i@j@k@l@a@m@n@o@p@q@q@q@q@q@r@s@9@9@t@          ",
"      u@v@w@w@o@x@x@x@x@x@x@x@x@y@z@A@B@C@D@E@F@x@x@x@x@x@x@x@x@x@G@H@I@J@K@L@s@w@w@M@          ",
"      N@O@P@P@Q@R@R@R@R@R@R@R@R@S@T@U@G@R@R@R@R@R@R@R@R@R@R@R@R@R@R@R@R@R@V@W@X@P@P@Y@          ",
"      Z@`@ # #.#+#@#@#@#@#@#@#@#@#@#@#@#@#@#@#@#@#@#@#@#@#@#@#@#@#@#@#@#@#@### # # #$#          ",
"      %#&#*#*#*#*#*#*#*#*#*#*#*#*#*#*#*#*#*#*#*#*#*#*#*#*#*#*#*#*#*#*#*#*#*#*#*#*#*#=#          ",
"      -#;#>#>#>#>#>#>#>#>#>#>#>#>#>#>#>#>#>#>#>#>#>#>#>#>#>#>#>#>#>#>#>#>#>#>#>#>#>#,#'#        ",
"      )#!#!#!#!#!#!#!#!#!#!#!#!#!#!#!#!#!#!#!#!#!#!#!#!#!#!#!#!#!#!#!#!#!#!#!#!#!#!#~#{#        ",
"      ]#^#^#^#^#^#^#^#^#^#^#^#^#^#^#^#^#^#^#^#^#^#^#^#^#^#^#^#^#^#^#^#^#^#^#^#^#^#^#/#(#        ",
"      _#:#:#:#:#:#:#:#:#:#:#:#:#:#:#:#:#:#:#:#:#:#:#:#:#:#:#:#:#:#:#:#:#:#:#:#:#:#:#<#[#        ",
"      }#|#|#|#|#|#|#|#|#|#|#|#|#|#|#|#|#|#|#|#|#|#|#|#|#|#|#|#|#|#|#|#|#|#|#|#|#|#|#1#2#        ",
"      3#4#4#4#4#4#4#4#4#4#4#4#4#4#4#4#4#4#4#4#4#4#4#4#4#4#4#4#4#4#4#4#4#4#4#4#4#4#4#5#6#        ",
"      7#8#8#8#8#8#8#8#8#8#8#8#8#8#8#8#8#8#8#8#8#8#8#8#8#8#8#8#8#8#8#8#8#8#8#8#8#8#8#9#0#        ",
"                                                                                                ",
"                                                                                                ",
"                                                                                                ",
"                                                                                                "};
